<?xml version="1.0" encoding="UTF-8"?>
<svg version="1.1" xmlns="http://www.w3.org/2000/svg" width="437" height="478">
<path d="M0 0 C144.21 0 288.42 0 437 0 C437 157.74 437 315.48 437 478 C292.79 478 148.58 478 0 478 C0 320.26 0 162.52 0 0 Z " fill="#FDFDFD" transform="translate(0,0)"/>
<path d="M0 0 C2.22904489 0.89613629 4.45820213 1.79199321 6.6875 2.6875 C10.34480965 4.19284244 13.61860184 5.955168 17 8 C19.19130534 8.69579454 19.19130534 8.69579454 21 9 C21 9.66 21 10.32 21 11 C21.66 11 22.32 11 23 11 C23 11.66 23 12.32 23 13 C23.54011719 13.07863281 24.08023438 13.15726563 24.63671875 13.23828125 C37.64959706 17.43251475 56.40573639 36.3844164 63 48 C64.00674203 51.31361948 63.84765263 52.48829627 63 56 C58.57804998 59.77366148 54.92281904 60.57909781 49.27775574 60.50552368 C48.14027994 60.51465886 48.14027994 60.51465886 46.97982484 60.52397859 C44.44871814 60.53954596 41.91856216 60.52680375 39.38745117 60.51416016 C37.56867377 60.51962248 35.74990098 60.52686479 33.93113708 60.53575134 C30.0187669 60.55108087 26.10665894 60.55389349 22.19426537 60.54698563 C16.00369917 60.5361924 9.8134065 60.55359015 3.62287903 60.57479858 C-6.17289344 60.60505748 -15.96858486 60.61675289 -25.76440018 60.62037504 C-43.29534063 60.62701966 -60.82622443 60.65610115 -78.3570959 60.7054714 C-84.50637077 60.72193806 -90.65552778 60.72739206 -96.80482256 60.72388101 C-100.63694169 60.72344275 -104.46901665 60.73102669 -108.30112267 60.74055672 C-110.07277116 60.74323059 -111.8444287 60.74250301 -113.61607361 60.73804665 C-129.4735134 60.44856168 -129.4735134 60.44856168 -143.875 66.4375 C-144.77992188 67.03433594 -145.68484375 67.63117188 -146.6171875 68.24609375 C-150.13460878 70.83514646 -152.20939484 73.00557309 -154 77 C-154.66 77 -155.32 77 -156 77 C-156.28617188 77.72316406 -156.57234375 78.44632812 -156.8671875 79.19140625 C-157.57260174 80.94034708 -158.30284017 82.67973251 -159.0703125 84.40234375 C-163.21497497 94.36488428 -163.42071676 104.9044381 -160.1640625 115.20703125 C-156.23148113 124.64258722 -151.02864456 132.91276549 -142 138 C-132.90727791 141.69748268 -124.40644337 142.58468655 -114.67260742 142.54589844 C-113.2913854 142.55465887 -111.91017349 142.56515312 -110.52897644 142.57722473 C-106.82317023 142.6048039 -103.11769972 142.60849573 -99.41180587 142.60750484 C-95.52269803 142.61065843 -91.63373609 142.63632686 -87.7447052 142.65948486 C-80.39986833 142.69986274 -73.05511982 142.72034243 -65.71018916 142.73345876 C-57.33995612 142.74939094 -48.96987215 142.78783232 -40.59972608 142.82805204 C-23.39986203 142.91020137 -6.20002225 142.96444894 11 143 C11.42829102 142.07852173 11.42829102 142.07852173 11.86523438 141.13842773 C13.45416388 138.14414341 15.12986292 136.80172067 18 135 C21.59375 134.43359375 21.59375 134.43359375 25.5 134.4375 C26.7890625 134.41558594 28.078125 134.39367187 29.40625 134.37109375 C33.85129602 135.1489768 35.21182953 136.52604972 38 140 C40.30962327 143.43465466 41.76435069 146.89244824 42.625 150.9375 C41.37638963 157.05569084 37.43928659 162.16680143 32.625 166.0625 C28.623171 168.61554322 25.67368933 168.59348436 21 168 C17.27865965 166.64027949 15.47453446 165.67113964 13.17931843 162.42498875 C11.23028844 159.79373901 11.23028844 159.79373901 8.39451122 159.38031673 C7.40002122 159.38274663 6.40553122 159.38517653 5.38090515 159.38768005 C4.23593063 159.37817322 3.09095612 159.36866638 1.9112854 159.35887146 C0.65883026 159.37378128 -0.59362488 159.3886911 -1.8840332 159.40405273 C-3.219879 159.40214829 -4.5557232 159.39799172 -5.89155579 159.39175415 C-8.76841395 159.3829609 -11.64466902 159.38972416 -14.52147865 159.40841484 C-19.08374572 159.43755689 -23.64549578 159.42969736 -28.20780945 159.41651917 C-37.08633829 159.39584314 -45.9646174 159.41143381 -54.84313202 159.43199158 C-66.10373689 159.45711063 -77.36419637 159.46980083 -88.62480611 159.44203526 C-93.14519317 159.43216446 -97.66495156 159.44201527 -102.185269 159.46794307 C-105.02129298 159.48026167 -107.85712848 159.47584124 -110.6931591 159.46736526 C-112.60230552 159.46658944 -114.51142934 159.48560375 -116.42047119 159.50559998 C-131.17164079 159.42172084 -144.67404803 155.21730131 -157 147 C-157 146.34 -157 145.68 -157 145 C-157.59039062 144.7421875 -158.18078125 144.484375 -158.7890625 144.21875 C-169.01478264 138.58195727 -174.82410063 124.6026179 -178 114 C-182.98568579 93.72264704 -174.12791395 73.91946398 -164.0703125 56.6953125 C-162.42765852 54.0938562 -160.73383642 51.54119537 -159 49 C-158.58621094 48.34 -158.17242187 47.68 -157.74609375 47 C-156.88664532 45.62995675 -155.9533503 44.306443 -155 43 C-154.34 43 -153.68 43 -153 43 C-152.7525 42.443125 -152.505 41.88625 -152.25 41.3125 C-150.77075182 38.57589087 -149.06532561 36.32349131 -147 34 C-146.34 34 -145.68 34 -145 34 C-144.76925781 33.43667969 -144.53851563 32.87335938 -144.30078125 32.29296875 C-139.13542623 23.18767326 -127.57686544 16.62856795 -119 11 C-118.2575 10.4946875 -117.515 9.989375 -116.75 9.46875 C-112.53315788 6.68019312 -108.23105014 4.74789726 -103.4921875 2.9921875 C-100.92559312 2.02299047 -100.92559312 2.02299047 -98.32421875 0.578125 C-93.98054534 -1.48397143 -89.55375236 -2.80742913 -84.9375 -4.125 C-84.00953613 -4.39143311 -83.08157227 -4.65786621 -82.12548828 -4.93237305 C-75.81904395 -6.67149593 -69.95105232 -7.71394738 -63.3984375 -7.89453125 C-41.14010414 -8.8733179 -21.03877796 -9.23937483 0 0 Z " fill="#313C6E" transform="translate(269,62)"/>
<path d="M0 0 C2.43236667 1.2259128 3.5671861 1.95159175 5.00565243 4.29960918 C6.61197757 6.49324482 6.61197757 6.49324482 9.31776524 6.7382555 C10.35352664 6.73285094 11.38928804 6.72744638 12.45643616 6.72187805 C14.2410601 6.72757309 14.2410601 6.72757309 16.06173706 6.73338318 C17.36917877 6.7173555 18.67662048 6.70132782 20.02368164 6.68481445 C21.41361762 6.68208887 22.80355831 6.68121918 24.1934967 6.68206787 C27.19089571 6.68046628 30.18791524 6.66678596 33.18522835 6.64415932 C37.94139591 6.60945663 42.69720566 6.60837439 47.45347595 6.61308289 C60.13182421 6.62058036 72.80998988 6.58769686 85.48818916 6.52665156 C93.80481872 6.48663363 102.12094853 6.46704808 110.43767256 6.48502892 C114.38230039 6.49224331 118.32588025 6.48612886 122.27034187 6.44695473 C159.56218871 6.08885133 159.56218871 6.08885133 173.5625 18 C174.1296875 18.57878906 174.696875 19.15757812 175.28125 19.75390625 C176.83333042 21.4603118 176.83333042 21.4603118 179.5625 22.9375 C182.01449958 24.40869975 183.26272226 25.82338895 184.75 28.25 C184.75 28.91 184.75 29.57 184.75 30.25 C185.41 30.25 186.07 30.25 186.75 30.25 C190.83445686 35.09855593 192.94045711 41.00716476 194.953125 46.9296875 C195.68818967 49.23674897 195.68818967 49.23674897 196.75 51.25 C198.81562172 69.54422366 195.41679484 87.50937831 185.75 103.25 C185.09 103.25 184.43 103.25 183.75 103.25 C183.50378906 103.93707031 183.25757813 104.62414062 183.00390625 105.33203125 C181.53634631 108.7471941 179.69293093 111.82103294 177.6875 114.9375 C177.29336914 115.55036865 176.89923828 116.1632373 176.49316406 116.79467773 C162.9767564 137.31314195 142.39041816 153.93572636 119.75 163.25 C118.76128906 163.67796875 117.77257812 164.1059375 116.75390625 164.546875 C110.16023785 167.26833814 103.46284991 169.24121254 96.5625 171 C95.33358032 171.31626343 95.33358032 171.31626343 94.07983398 171.63891602 C73.69931848 176.62218191 50.85022011 176.08039497 30.75 170.25 C29.99428711 170.03569336 29.23857422 169.82138672 28.45996094 169.60058594 C6.9558132 163.35920465 -11.11106941 152.76296869 -27.25 137.25 C-28.06597656 136.47398437 -28.88195312 135.69796875 -29.72265625 134.8984375 C-33.82899503 130.90560727 -37.21189174 127.08846871 -40.25 122.25 C-40.9925 121.651875 -41.735 121.05375 -42.5 120.4375 C-44.90117387 117.43603267 -44.68991298 115.11839865 -44.68359375 111.37109375 C-44.1189012 108.60867882 -43.54826364 107.90026739 -41.25 106.25 C-38.69226905 105.95625571 -36.37752474 105.84682643 -33.81932068 105.87145996 C-33.05610522 105.86692983 -32.29288976 105.8623997 -31.50654656 105.8577323 C-28.94096012 105.84607573 -26.37589181 105.85576847 -23.81030273 105.86523438 C-21.97388878 105.86113056 -20.13747742 105.85567082 -18.30107117 105.84895325 C-14.34121543 105.83720956 -10.38149915 105.83475071 -6.42162895 105.83930969 C-0.15544887 105.84610982 6.11054736 105.83026582 12.37669373 105.81091309 C25.68861919 105.77300824 39.00052886 105.76026085 52.3125 105.75 C66.65935761 105.73892683 81.00613072 105.72350398 95.35293049 105.67928743 C101.57638555 105.66096311 107.79963113 105.65702797 114.02310669 105.66422272 C117.90555913 105.66574941 121.78790778 105.65492947 125.67033195 105.64084435 C127.4641315 105.63685635 129.257951 105.63794156 131.05174255 105.64461708 C146.91730738 105.69909924 157.63793826 103.67939091 169.6015625 92.5234375 C177.87208193 83.57431135 180.05583357 73.97640097 179.91015625 62.16796875 C179.65081046 55.82348525 179.32503414 49.6125512 175.75 44.25 C175.75 43.26 175.75 42.27 175.75 41.25 C175.09 41.25 174.43 41.25 173.75 41.25 C172.26953125 39.67578125 172.26953125 39.67578125 170.5625 37.5625 C163.13740539 28.88202857 154.16414718 24.19896621 142.75 23.25 C138.35374272 23.08694194 133.95927123 23.06224011 129.56030273 23.04125977 C128.25364655 23.03147598 126.94699036 23.0216922 125.60073853 23.01161194 C121.29505304 22.98045782 116.98934948 22.96000114 112.68359375 22.94140625 C111.94895189 22.93810893 111.21431002 22.93481161 110.45740628 22.93141437 C103.52168564 22.90066893 96.58596019 22.8739864 89.65019131 22.85699558 C80.80372668 22.83506046 71.95786635 22.79297435 63.11164325 22.72355801 C56.87533422 22.6762907 50.63918825 22.65205943 44.40270573 22.6447987 C40.6838563 22.63985121 36.96569138 22.62485522 33.24703789 22.5850544 C29.10108685 22.54125411 24.9564777 22.54509082 20.81030273 22.55297852 C19.58568832 22.53297791 18.36107391 22.51297729 17.09934998 22.49237061 C9.72433407 22.55258539 9.72433407 22.55258539 3.55873108 26.23106384 C2.61537244 27.23070912 1.6776731 28.23578167 0.75 29.25 C-1.95238298 30.60119149 -4.11014446 30.38237128 -7.125 30.375 C-8.17429688 30.37757813 -9.22359375 30.38015625 -10.3046875 30.3828125 C-16.35465515 30.11000229 -16.35465515 30.11000229 -18.734375 27.82421875 C-22.77078562 21.80697699 -23.16208066 16.36623373 -22.25 9.25 C-20.62837809 4.47048279 -18.41394853 2.06066526 -14.25 -0.75 C-9.09756613 -2.46747796 -4.89717236 -2.29977708 0 0 Z " fill="#303B6E" transform="translate(155.25,148.75)"/>
<path d="M0 0 C3.83292441 -0.14648406 7.66511953 -0.23446464 11.5 -0.3125 C12.57765625 -0.35439453 13.6553125 -0.39628906 14.765625 -0.43945312 C21.74521127 -0.54584926 26.72158197 0.17770985 32 5 C34.95928457 9.43892685 34.65888264 13.7902303 34 19 C32 21.875 32 21.875 30 24 C29.41507547 27.50345419 29.95974944 28.93001075 31.75 32.04296875 C32.4925 33.08066406 33.235 34.11835938 34 35.1875 C38 40.81944444 38 40.81944444 38 43 C38.66 43 39.32 43 40 43 C40 43.66 40 44.32 40 45 C35.40640063 45.8945804 31.55391458 46.20215195 27 45 C22.84155454 41.27771722 20.31681399 35.99282394 18 31 C18 30.34 18 29.68 18 29 C16.35 29 14.7 29 13 29 C13.14235457 30.72945653 13.28904382 32.45855654 13.4375 34.1875 C13.55931641 35.63189453 13.55931641 35.63189453 13.68359375 37.10546875 C13.97349361 39.75751558 14.47679265 42.38396323 15 45 C10.05 45 5.1 45 0 45 C0 44.34 0 43.68 0 43 C0.66 43 1.32 43 2 43 C1.88180475 37.3581721 1.75755997 31.71652232 1.62768555 26.07495117 C1.5843506 24.15539175 1.54267448 22.23579415 1.50268555 20.31616211 C1.44494822 17.55831386 1.38126365 14.80065759 1.31640625 12.04296875 C1.29969376 11.18350143 1.28298126 10.32403412 1.26576233 9.43852234 C1.24581711 8.63791885 1.22587189 7.83731537 1.20532227 7.01245117 C1.18977798 6.3085173 1.1742337 5.60458344 1.15821838 4.87931824 C1.05518396 2.77300917 1.05518396 2.77300917 0 0 Z " fill="#37416D" transform="translate(294,360)"/>
<path d="M0 0 C3.96 0 7.92 0 12 0 C12.39832031 1.08539063 12.79664062 2.17078125 13.20703125 3.2890625 C13.74200903 4.73444107 14.27717531 6.17974988 14.8125 7.625 C15.07353516 8.33785156 15.33457031 9.05070312 15.60351562 9.78515625 C16.81965818 13.05823127 18.0797164 16.15792872 19.65625 19.28125 C21.2544773 22.51487268 21.64312605 25.43126054 22 29 C22.66 29 23.32 29 24 29 C24.14695312 28.07380859 24.14695312 28.07380859 24.296875 27.12890625 C25.23765011 21.80055065 26.59118232 17.19794768 28.9140625 12.31640625 C30.80171608 8.28986461 32.36896131 4.13584812 34 0 C37.96 0 41.92 0 46 0 C45.99476318 1.18553467 45.98952637 2.37106934 45.98413086 3.5925293 C45.9660012 8.00007367 45.95453886 12.40761476 45.94506836 16.81518555 C45.94004636 18.72111567 45.93322752 20.62704195 45.92456055 22.53295898 C45.91240154 25.27588856 45.90675029 28.0187671 45.90234375 30.76171875 C45.89718246 31.61086349 45.89202118 32.46000824 45.88670349 33.33488464 C45.88662796 34.13533707 45.88655243 34.93578949 45.88647461 35.76049805 C45.884254 36.45999069 45.88203339 37.15948334 45.87974548 37.88017273 C45.9787324 40.50147183 45.9787324 40.50147183 47 45 C42.05 45 37.1 45 32 45 C32 44.34 32 43.68 32 43 C32.66 43 33.32 43 34 43 C33.67 32.44 33.34 21.88 33 11 C29.10006814 20.62201445 29.10006814 20.62201445 25.375 30.3125 C23.66173044 34.90717745 21.83554525 39.45306559 20 44 C19.01 44 18.02 44 17 44 C16.74307373 43.30438965 16.48614746 42.6087793 16.22143555 41.89208984 C15.04696932 38.71841406 13.86728538 35.54670208 12.6875 32.375 C12.28337891 31.28058594 11.87925781 30.18617188 11.46289062 29.05859375 C11.06650391 27.99511719 10.67011719 26.93164062 10.26171875 25.8359375 C9.90037842 24.86188965 9.53903809 23.8878418 9.16674805 22.88427734 C7.94014048 19.85202336 6.46281444 16.92562887 5 14 C4.67 23.57 4.34 33.14 4 43 C4.66 43 5.32 43 6 43 C6 43.66 6 44.32 6 45 C4.02 45 2.04 45 0 45 C0.16226074 44.3498291 0.32452148 43.6996582 0.49169922 43.02978516 C1.13658614 39.18586263 1.14297091 35.40824757 1.1328125 31.5234375 C1.13376923 30.7163736 1.13472595 29.90930969 1.13571167 29.07778931 C1.13638999 27.37835614 1.13456005 25.67892033 1.13037109 23.97949219 C1.12500391 21.37689422 1.13033503 18.77446773 1.13671875 16.171875 C1.13605818 14.51822879 1.13477746 12.86458268 1.1328125 11.2109375 C1.13483673 10.43277679 1.13686096 9.65461609 1.13894653 8.85287476 C1.12496158 5.63897192 1.0237336 3.07120079 0 0 Z " fill="#39426F" transform="translate(59,360)"/>
<path d="M0 0 C23.3 0 23.3 0 30.9375 4.875 C34.2058959 9.82711501 33.72350147 15.22721984 33 21 C30.46000021 24.80999969 28.25005372 25.46118745 24 27 C22.68 27 21.36 27 20 27 C20 27.66 20 28.32 20 29 C17.36 29 14.72 29 12 29 C12.14235457 30.72945653 12.28904382 32.45855654 12.4375 34.1875 C12.55931641 35.63189453 12.55931641 35.63189453 12.68359375 37.10546875 C12.97349361 39.75751558 13.47679265 42.38396323 14 45 C8.72 45 3.44 45 -2 45 C-2 44.34 -2 43.68 -2 43 C-1.34 43 -0.68 43 0 43 C0 28.81 0 14.62 0 0 Z " fill="#444C79" transform="translate(117,360)"/>
<path d="M0 0 C3.14550813 -0.11792821 6.29043541 -0.18781383 9.4375 -0.25 C10.31599609 -0.28351563 11.19449219 -0.31703125 12.09960938 -0.3515625 C19.66949765 -0.46329517 25.4220821 1.38790043 31.546875 5.859375 C33.52429042 8.7723418 33.40148859 10.76576233 33.25 14.25 C33.21390625 15.32765625 33.1778125 16.4053125 33.140625 17.515625 C33.09421875 18.33546875 33.0478125 19.1553125 33 20 C32.34 20 31.68 20 31 20 C30.61521484 20.92039062 30.61521484 20.92039062 30.22265625 21.859375 C28.15046845 25.48735876 24.87718109 26.74040817 21 28 C17.96252513 28.30046119 15.03891957 28.2532433 12 28 C12.14100857 30.27113803 12.28796755 32.54190725 12.4375 34.8125 C12.51871094 36.07707031 12.59992188 37.34164062 12.68359375 38.64453125 C12.87184547 41.99181893 12.87184547 41.99181893 14 45 C9.05 45 4.1 45 -1 45 C-0.67 43.35 -0.34 41.7 0 40 C0.0800668 38.58859532 0.11801322 37.17416481 0.11352539 35.76049805 C0.11344986 34.96004562 0.11337433 34.1595932 0.11329651 33.33488464 C0.10813522 32.4857399 0.10297394 31.63659515 0.09765625 30.76171875 C0.0962413 29.88095169 0.09482635 29.00018463 0.09336853 28.09272766 C0.08778937 25.29094997 0.07524071 22.48925338 0.0625 19.6875 C0.05748231 17.78320428 0.05291987 15.87890731 0.04882812 13.97460938 C0.03782677 9.31637519 0.02057649 4.65820133 0 0 Z " fill="#3C4572" transform="translate(345,360)"/>
<path d="M0 0 C1.70736328 0.03673828 1.70736328 0.03673828 3.44921875 0.07421875 C6.3125 0.3125 6.3125 0.3125 8.3125 1.3125 C8.3125 1.9725 8.3125 2.6325 8.3125 3.3125 C8.93125 3.60125 9.55 3.89 10.1875 4.1875 C13.50709708 5.94493375 14.23229232 7.07187696 15.4375 10.6875 C17.15214017 18.29275883 17.78346935 26.58590005 13.70703125 33.5 C9.34889288 39.16435912 4.10397142 43.13410351 -2.6875 45.3125 C-5.625 45.5 -5.625 45.5 -7.6875 45.3125 C-6.945 44.590625 -6.2025 43.86875 -5.4375 43.125 C-1.51555894 39.11392392 1.4775545 35.66442438 3.3125 30.3125 C0.6725 29.9825 -1.9675 29.6525 -4.6875 29.3125 C-4.6875 28.6525 -4.6875 27.9925 -4.6875 27.3125 C-6.0075 27.3125 -7.3275 27.3125 -8.6875 27.3125 C-8.6875 26.6525 -8.6875 25.9925 -8.6875 25.3125 C-9.30625 25.065 -9.925 24.8175 -10.5625 24.5625 C-13.12751035 23.05367038 -13.58635091 22.03869291 -14.6875 19.3125 C-15.47421167 13.69313096 -14.90952478 9.08998502 -11.6875 4.3125 C-7.81194873 0.51970071 -5.3808442 -0.17792985 0 0 Z " fill="#343F6B" transform="translate(175.6875,359.6875)"/>
<path d="M0 0 C-0.70125 0.66 -1.4025 1.32 -2.125 2 C-6.37865164 6.26580493 -10.8661705 10.93941138 -12 17 C-11.27554688 16.95359375 -10.55109375 16.9071875 -9.8046875 16.859375 C-3.67144137 16.63040048 0.27231273 16.62688928 5 21 C8.44227438 24.9012443 8.32377163 28.62407039 8.30078125 33.59765625 C7.97538491 36.19660107 7.4030535 37.79654686 6 40 C0.52952771 44.07375596 -3.69161386 45.48489721 -10.42578125 45.40625 C-14.83374651 44.71060753 -17.264404 42.39669836 -20 39 C-24.47078957 32.07748712 -23.83555041 23.52541403 -22.63671875 15.59765625 C-20.85316261 9.47047359 -16.03930027 5.61308321 -11 2 C-7.18385367 0.2387017 -4.18102968 -0.24594292 0 0 Z " fill="#313B6B" transform="translate(227,360)"/>
<path d="M0 0 C9.9 0 19.8 0 30 0 C29.67 4.29 29.34 8.58 29 13 C28.34 13 27.68 13 27 13 C27 12.34 27 11.68 27 11 C18.72049367 8.78227509 10.52080037 8.39728885 2 8 C2 10.97 2 13.94 2 17 C3.11375 16.505 4.2275 16.01 5.375 15.5 C12.14663921 12.98755436 19.49213479 12.93052204 26.171875 15.8359375 C29.8106923 18.15296219 32.16916377 21.11620404 34 25 C34.92086193 29.94141087 34.42763882 34.54932883 32 39 C27.24821492 43.75178508 20.41978664 45.2884163 13.875 45.5625 C7.06107069 45.34297908 2.72837583 42.72837583 -2 38 C-1.8125 34.5 -1.8125 34.5 -1 31 C2 29 2 29 6 29 C6.09796875 29.60328125 6.1959375 30.2065625 6.296875 30.828125 C6.99019021 34.53377526 7.63247714 37.42829778 9.6875 40.625 C12.06209606 42.31136318 12.06209606 42.31136318 15.5625 41.9375 C19.49164288 40.88692866 19.49164288 40.88692866 22 38 C22.5142569 35.17076395 22.5142569 35.17076395 22.4375 32.0625 C22.45683594 31.02222656 22.47617187 29.98195313 22.49609375 28.91015625 C21.88594041 25.33091028 20.78880195 24.2462532 18 22 C11.78251619 18.13134341 7.02203247 18.59559351 0 20 C0 13.4 0 6.8 0 0 Z " fill="#434A72" transform="translate(388,360)"/>
<path d="M0 0 C0 2.97 0 5.94 0 9 C-3 8 -3 8 -4.3125 5.625 C-6.4541996 2.29346728 -8.32938288 1.3948345 -12 0 C-15.23129786 -0.30774265 -17.89780556 0.08083128 -21 1 C-21 1.66 -21 2.32 -21 3 C-21.66 3 -22.32 3 -23 3 C-25.82578556 13.4453145 -26.28038493 22.2529288 -21 32 C-17.25816413 36.98911449 -13.8977022 37.9004284 -8 39 C-8.1409349 36.56212615 -8.28754542 34.12482147 -8.4375 31.6875 C-8.47681641 30.99720703 -8.51613281 30.30691406 -8.55664062 29.59570312 C-8.74927415 26.52838465 -9.02322717 23.93031848 -10 21 C-5.71 21 -1.42 21 3 21 C3.42504531 34.36342453 3.42504531 34.36342453 0 38.296875 C-2.28613178 39.77699878 -4.48709753 40.95795237 -7 42 C-7.99 42.495 -7.99 42.495 -9 43 C-16.38031569 43.76957138 -22.67996952 43.05483144 -29 39 C-34.34619723 34.39495765 -36.36827872 28.24516697 -37.390625 21.375 C-37.72097855 13.82406167 -35.38808735 7.96897347 -30.6875 2.125 C-21.59428607 -5.0649831 -10.27048448 -4.83316917 0 0 Z " fill="#333E6C" transform="translate(282,362)"/>
<path d="M0 0 C0.99 0.66 1.98 1.32 3 2 C3.3125 5 3.3125 5 3 8 C2.34 8.66 1.68 9.32 1 10 C0.773125 9.21625 0.54625 8.4325 0.3125 7.625 C-0.77083333 4.80208333 -0.77083333 4.80208333 -3.5 3.75 C-4.325 3.5025 -5.15 3.255 -6 3 C-6.66 2.67 -7.32 2.34 -8 2 C-12.14503661 1.75212983 -12.14503661 1.75212983 -16 3 C-16.48499058 7.04885914 -16.48499058 7.04885914 -16 11 C-13.54472854 13.05395939 -11.73403635 14.24492947 -8.9375 15.625 C-7.55779742 16.38552846 -6.18016072 17.1498176 -4.8046875 17.91796875 C-4.14436523 18.27681152 -3.48404297 18.6356543 -2.80371094 19.00537109 C0.86187928 21.02670495 3.2923767 22.76405996 6 26 C7.15256102 30.37681399 7.02100647 34.11373381 4.84765625 38.12890625 C1.69279111 42.13734233 -1.00834314 43.70631876 -6 45 C-9.21875 45.265625 -9.21875 45.265625 -12.5 45.25 C-14.12421875 45.25773437 -14.12421875 45.25773437 -15.78125 45.265625 C-19.13574256 44.98879794 -21.86306413 44.19052385 -25 43 C-25 40.69 -25 38.38 -25 36 C-23.68 36 -22.36 36 -21 36 C-20.2575 36.99 -19.515 37.98 -18.75 39 C-17.22991297 40.99070221 -16.49407281 41.87278365 -14.04296875 42.50390625 C-10.95945151 42.58971842 -8.35741156 42.14296462 -5.5 41 C-3.0976596 37.79687946 -3.74252239 34.92653359 -4 31 C-4.70125 30.731875 -5.4025 30.46375 -6.125 30.1875 C-12.48790926 27.55934183 -18.60075751 24.30739568 -24 20 C-24 19.34 -24 18.68 -24 18 C-24.66 18 -25.32 18 -26 18 C-26.46631736 13.57646176 -26.71007166 9.40457982 -26 5 C-19.58879646 -2.42743161 -8.7808425 -1.72173382 0 0 Z " fill="#333E6D" transform="translate(44,360)"/>
<path d="M0 0 C3.96 0 7.92 0 12 0 C11.99476318 1.18553467 11.98952637 2.37106934 11.98413086 3.5925293 C11.9660012 8.00007367 11.95453886 12.40761476 11.94506836 16.81518555 C11.94004636 18.72111567 11.93322752 20.62704195 11.92456055 22.53295898 C11.91240154 25.27588856 11.90675029 28.0187671 11.90234375 30.76171875 C11.89718246 31.61086349 11.89202118 32.46000824 11.88670349 33.33488464 C11.88662796 34.13533707 11.88655243 34.93578949 11.88647461 35.76049805 C11.88314369 36.80973701 11.88314369 36.80973701 11.87974548 37.88017273 C11.9787324 40.50147183 11.9787324 40.50147183 13 45 C8.05 45 3.1 45 -2 45 C-2 44.34 -2 43.68 -2 43 C-1.34 43 -0.68 43 0 43 C0 28.81 0 14.62 0 0 Z " fill="#39416E" transform="translate(93,360)"/>
<path d="M0 0 C2.97 0 5.94 0 9 0 C9.02505615 0.74685059 9.0501123 1.49370117 9.07592773 2.26318359 C9.19168213 5.63397267 9.31450128 9.00446783 9.4375 12.375 C9.47681641 13.550625 9.51613281 14.72625 9.55664062 15.9375 C9.61948242 17.61972656 9.61948242 17.61972656 9.68359375 19.3359375 C9.73858032 20.89127197 9.73858032 20.89127197 9.79467773 22.47802734 C9.84164223 24.99425166 9.84164223 24.99425166 11 27 C11.07181821 29.71760108 11.09299506 32.40859388 11.0625 35.125 C11.05798828 35.87910156 11.05347656 36.63320313 11.04882812 37.41015625 C11.03703499 39.27347127 11.01909942 41.13674555 11 43 C7.04 43 3.08 43 -1 43 C-0.67 28.81 -0.34 14.62 0 0 Z " fill="#343F6D" transform="translate(118,361)"/>
<path d="M0 0 C4.19513624 0.86734884 6.41954354 2.63803388 9 6 C12.62629948 11.67594702 16 17.12852302 16 24 C15.34 24.66 14.68 25.32 14 26 C14.08571661 28.09291157 14.08571661 28.09291157 15 30 C15.99 30.33 16.98 30.66 18 31 C18.268125 30.195625 18.53625 29.39125 18.8125 28.5625 C19.204375 27.716875 19.59625 26.87125 20 26 C20.99 25.67 21.98 25.34 23 25 C21.21870582 30.87827081 17.70573156 35.27266097 12.55859375 38.55859375 C8.17663561 40.86385638 5.02344324 42.29549666 0 42 C0.7425 41.278125 1.485 40.55625 2.25 39.8125 C6.17194106 35.80142392 9.1650545 32.35192438 11 27 C8.36 26.67 5.72 26.34 3 26 C4.32 25.34 5.64 24.68 7 24 C6.65213292 22.02463255 6.65213292 22.02463255 6 20 C5.34 19.67 4.68 19.34 4 19 C3.67 19.66 3.34 20.32 3 21 C2.86722656 20.21753906 2.73445312 19.43507813 2.59765625 18.62890625 C2.42105469 17.61699219 2.24445313 16.60507812 2.0625 15.5625 C1.88847656 14.55316406 1.71445313 13.54382813 1.53515625 12.50390625 C1.25248903 10.0712562 1.25248903 10.0712562 0 9 C-0.07179964 7.48071962 -0.08392007 5.95832518 -0.0625 4.4375 C-0.05347656 3.61121094 -0.04445312 2.78492188 -0.03515625 1.93359375 C-0.02355469 1.29550781 -0.01195312 0.65742188 0 0 Z " fill="#3F4670" transform="translate(168,363)"/>
<path d="M0 0 C1.32 0.33 2.64 0.66 4 1 C3.34 1 2.68 1 2 1 C2.66 2.32 3.32 3.64 4 5 C4.99 5 5.98 5 7 5 C7.66 3.68 8.32 2.36 9 1 C9.02505615 1.71655762 9.0501123 2.43311523 9.07592773 3.17138672 C9.19169751 6.40611514 9.31450969 9.64053841 9.4375 12.875 C9.47681641 14.00292969 9.51613281 15.13085938 9.55664062 16.29296875 C9.61948242 17.90751953 9.61948242 17.90751953 9.68359375 19.5546875 C9.72025146 20.54968262 9.75690918 21.54467773 9.79467773 22.56982422 C9.84959532 25.00779501 9.84959532 25.00779501 11 27 C11.07181821 29.71760108 11.09299506 32.40859388 11.0625 35.125 C11.05798828 35.87910156 11.05347656 36.63320313 11.04882812 37.41015625 C11.03703499 39.27347127 11.01909942 41.13674555 11 43 C8.36 43 5.72 43 3 43 C1.98561194 39.60005461 1.81782672 36.41018807 1.71875 32.87109375 C1.68136719 31.67033203 1.64398438 30.46957031 1.60546875 29.23242188 C1.57066406 27.98009766 1.53585937 26.72777344 1.5 25.4375 C1.25809743 16.92163362 0.89790952 8.47456593 0 0 Z " fill="#2F396A" transform="translate(296,361)"/>
<path d="M0 0 C1.32 0.66 2.64 1.32 4 2 C4.37804878 11.6402439 4.37804878 11.6402439 2 16 C-2.75178508 20.75178508 -9.58021336 22.2884163 -16.125 22.5625 C-22.93892931 22.34297908 -27.27162417 19.72837583 -32 15 C-31.8125 11.5 -31.8125 11.5 -31 8 C-28 6 -28 6 -24 6 C-23.85304688 6.90492188 -23.85304688 6.90492188 -23.703125 7.828125 C-23.00980979 11.53377526 -22.36752286 14.42829778 -20.3125 17.625 C-17.94700497 19.29812731 -17.94700497 19.29812731 -14.5 19 C-10.66515063 17.90432875 -9.37646643 17.14033063 -7 14 C-5.93988057 12.03120677 -4.92529151 10.03564133 -4 8 C-3.01 8.33 -2.02 8.66 -1 9 C-0.67 6.03 -0.34 3.06 0 0 Z " fill="#4B567D" transform="translate(418,383)"/>
<path d="M0 0 C0.99 0 1.98 0 3 0 C3.2475 0.61875 3.495 1.2375 3.75 1.875 C4.79861134 4.14291085 4.79861134 4.14291085 6.9375 4.8125 C9.51616663 6.29718685 10.41278769 7.98326077 11.453125 10.734375 C12.59749656 15.47534288 12.75889933 20.18680066 12 25 C9.5625 28.125 9.5625 28.125 7 30 C6.67 30.66 6.34 31.32 6 32 C4.68 31.67 3.36 31.34 2 31 C1.375 29.25 1.375 29.25 1 27 C1.33700928 26.37923584 1.67401855 25.75847168 2.02124023 25.11889648 C3.2080679 22.54955817 2.9949174 21.54685713 2.28515625 18.84765625 C2.09373047 18.07099609 1.90230469 17.29433594 1.70507812 16.49414062 C1.38700195 15.29047852 1.38700195 15.29047852 1.0625 14.0625 C-1.44518024 4.443256 -1.44518024 4.443256 0 0 Z " fill="#313B6D" transform="translate(180,362)"/>
<path d="M0 0 C8 1 8 1 9.96875 2.6640625 C12.12187629 7.54121977 11.68291363 12.80727937 11 18 C9.69816607 21.05986607 8.72334329 21.86868786 6 24 C4.02 24.33 2.04 24.66 0 25 C0 16.75 0 8.5 0 0 Z " fill="#EDEFF3" transform="translate(128,362)"/>
<path d="M0 0 C7 1 7 1 9.4375 2.8125 C11.87035717 7.77552863 11.75077993 12.57936891 11 18 C8.97831739 21.61014753 6.91329864 23.61141016 3 25 C2.01 25 1.02 25 0 25 C0 16.75 0 8.5 0 0 Z " fill="#EEF1F6" transform="translate(307,362)"/>
<path d="M0 0 C7 1 7 1 9.4375 2.875 C11.78568893 7.57137787 11.73119147 11.85150748 11 17 C9.4375 20.625 9.4375 20.625 7 23 C4.69 23.33 2.38 23.66 0 24 C0 16.08 0 8.16 0 0 Z " fill="#F3F5F8" transform="translate(357,362)"/>
<path d="M0 0 C9.9 0 19.8 0 30 0 C29.67 5.28 29.34 10.56 29 16 C28.34 16 27.68 16 27 16 C27 16.66 27 17.32 27 18 C25.88625 17.67 24.7725 17.34 23.625 17 C17.09176787 15.37250445 11.05512472 14.94821714 5 18 C3.68 18 2.36 18 1 18 C1 15.03 1 12.06 1 9 C17.70842825 8.44646925 17.70842825 8.44646925 26 12 C26 12.66 26 13.32 26 14 C26.66 14 27.32 14 28 14 C27.979375 12.783125 27.95875 11.56625 27.9375 10.3125 C27.87988184 6.91302863 28.30533974 4.47330128 29 1 C19.43 1 9.86 1 0 1 C0 0.67 0 0.34 0 0 Z " fill="#DDE1EB" transform="translate(389,359)"/>
<path d="M0 0 C7.92 0 15.84 0 24 0 C24 0.33 24 0.66 24 1 C20.37 1.33 16.74 1.66 13 2 C13 10.25 13 18.5 13 27 C12.34 26.67 11.68 26.34 11 26 C10.67 19.4 10.34 12.8 10 6 C8.35 6.33 6.7 6.66 5 7 C4.67 5.35 4.34 3.7 4 2 C3.67 2 3.34 2 3 2 C3.15339844 3.30710937 3.30679687 4.61421875 3.46484375 5.9609375 C4.21847451 13.49724505 4.35666498 21.05867281 4.5625 28.625 C4.60579715 30.12110312 4.64941456 31.61719701 4.69335938 33.11328125 C4.79926182 36.74208861 4.9008418 40.37100135 5 44 C7.64 44 10.28 44 13 44 C13.33 42.68 13.66 41.36 14 40 C14.33 41.65 14.66 43.3 15 45 C10.05 45 5.1 45 0 45 C0 44.34 0 43.68 0 43 C0.66 43 1.32 43 2 43 C1.88180475 37.3581721 1.75755997 31.71652232 1.62768555 26.07495117 C1.5843506 24.15539175 1.54267448 22.23579415 1.50268555 20.31616211 C1.44494822 17.55831386 1.38126365 14.80065759 1.31640625 12.04296875 C1.29969376 11.18350143 1.28298126 10.32403412 1.26576233 9.43852234 C1.24581711 8.63791885 1.22587189 7.83731537 1.20532227 7.01245117 C1.18977798 6.3085173 1.1742337 5.60458344 1.15821838 4.87931824 C1.05518396 2.77300917 1.05518396 2.77300917 0 0 Z " fill="#63698B" transform="translate(294,360)"/>
<path d="M0 0 C0.33 0 0.66 0 1 0 C1.5859375 5.859375 1.5859375 5.859375 1 8 C-3.46943664 11.67328848 -6.99342568 12.57612042 -12.63095093 12.48101807 C-13.37928401 12.48443577 -14.12761708 12.48785347 -14.89862692 12.49137473 C-17.3955408 12.49794118 -19.89136948 12.47599915 -22.38818359 12.45410156 C-24.18214899 12.45297281 -25.97611624 12.45360748 -27.77008057 12.45587158 C-32.63336883 12.45701858 -37.49626196 12.43351144 -42.35945845 12.40557575 C-47.44434064 12.38055985 -52.52923203 12.37821994 -57.61416626 12.37347412 C-67.24011366 12.36104492 -76.8658792 12.32822399 -86.49174654 12.28807616 C-97.45174821 12.24335679 -108.41175859 12.22137098 -119.37182879 12.20129442 C-141.91465332 12.15949137 -164.45731647 12.08914031 -187 12 C-187 11.67 -187 11.34 -187 11 C-186.08209088 10.99576806 -185.16418177 10.99153612 -184.21845722 10.98717594 C-161.89326086 10.88391298 -139.56809626 10.77528171 -117.24295521 10.66066074 C-106.44673048 10.60536087 -95.65050245 10.55188416 -84.85424805 10.50268555 C-75.4452588 10.4598041 -66.03629357 10.41351608 -56.62734145 10.36312145 C-51.64447551 10.33655246 -46.66161423 10.31170015 -41.67872047 10.29092598 C-36.98958379 10.27132272 -32.30049267 10.24716788 -27.61139679 10.21950912 C-25.88968166 10.21015824 -24.16795655 10.20247593 -22.44622612 10.19658089 C-20.09636912 10.18828632 -17.74662173 10.17400035 -15.39680481 10.15821838 C-14.08140622 10.15176583 -12.76600763 10.14531328 -11.41074848 10.1386652 C-8.47156315 10.01917157 -5.85198819 9.68596555 -3 9 C-2.87625 8.2575 -2.7525 7.515 -2.625 6.75 C-2.04513299 4.19858515 -1.26291261 2.2732427 0 0 Z " fill="#5B627F" transform="translate(331,110)"/>
<path d="M0 0 C3.96 0 7.92 0 12 0 C12.99 3.3 13.98 6.6 15 10 C13.68 9.01 12.36 8.02 11 7 C10.566875 7.969375 10.13375 8.93875 9.6875 9.9375 C8 13 8 13 5 14 C4.67 23.57 4.34 33.14 4 43 C4.66 43 5.32 43 6 43 C6 43.66 6 44.32 6 45 C4.02 45 2.04 45 0 45 C0.16226074 44.3498291 0.32452148 43.6996582 0.49169922 43.02978516 C1.13658614 39.18586263 1.14297091 35.40824757 1.1328125 31.5234375 C1.13376923 30.7163736 1.13472595 29.90930969 1.13571167 29.07778931 C1.13638999 27.37835614 1.13456005 25.67892033 1.13037109 23.97949219 C1.12500391 21.37689422 1.13033503 18.77446773 1.13671875 16.171875 C1.13605818 14.51822879 1.13477746 12.86458268 1.1328125 11.2109375 C1.13483673 10.43277679 1.13686096 9.65461609 1.13894653 8.85287476 C1.12496158 5.63897192 1.0237336 3.07120079 0 0 Z " fill="#3F4772" transform="translate(59,360)"/>
<path d="M0 0 C0.99 0.66 1.98 1.32 3 2 C3.3125 5 3.3125 5 3 8 C2.34 8.66 1.68 9.32 1 10 C0.773125 9.21625 0.54625 8.4325 0.3125 7.625 C-0.77083333 4.80208333 -0.77083333 4.80208333 -3.5 3.75 C-4.325 3.5025 -5.15 3.255 -6 3 C-6.66 2.67 -7.32 2.34 -8 2 C-12.14503661 1.75212983 -12.14503661 1.75212983 -16 3 C-16.46523063 4.89533342 -16.46523063 4.89533342 -16.625 7.0625 C-16.74875 8.361875 -16.8725 9.66125 -17 11 C-20 10 -20 10 -22 8 C-22.66 8 -23.32 8 -24 8 C-23.67 9.258125 -23.34 10.51625 -23 11.8125 C-22.32396773 14.38987302 -22 16.30212925 -22 19 C-19.34771188 20.07525194 -16.71631546 21.09456151 -14 22 C-13.67 22.99 -13.34 23.98 -13 25 C-11.35 25.33 -9.7 25.66 -8 26 C-7.67 26.99 -7.34 27.98 -7 29 C-13.66626117 27.69573151 -18.8458735 24.39708176 -24 20 C-24 19.34 -24 18.68 -24 18 C-24.66 18 -25.32 18 -26 18 C-26.46631736 13.57646176 -26.71007166 9.40457982 -26 5 C-19.58879646 -2.42743161 -8.7808425 -1.72173382 0 0 Z " fill="#5F6682" transform="translate(44,360)"/>
<path d="M0 0 C0 2.97 0 5.94 0 9 C-3 8 -3 8 -4.3125 5.625 C-6.4541996 2.29346728 -8.32938288 1.3948345 -12 0 C-15.23129786 -0.30774265 -17.89780556 0.08083128 -21 1 C-21 1.66 -21 2.32 -21 3 C-21.66 3 -22.32 3 -23 3 C-25.13480153 10.73865554 -25.20483028 18.00023956 -25 26 C-27.03120707 22.95318939 -27.24659875 22.39881676 -27.1953125 18.98828125 C-27.18564453 17.85229492 -27.18564453 17.85229492 -27.17578125 16.69335938 C-27.15902344 15.90767578 -27.14226562 15.12199219 -27.125 14.3125 C-27.11597656 13.51521484 -27.10695312 12.71792969 -27.09765625 11.89648438 C-27.07411585 9.930861 -27.03824547 7.96539225 -27 6 C-28.32 5.67 -29.64 5.34 -31 5 C-31.28875 5.9075 -31.5775 6.815 -31.875 7.75 C-33 11 -33 11 -34.03125 12.90625 C-35.11886992 15.25691241 -35.39805783 17.17798869 -35.625 19.75 C-35.69976562 20.54921875 -35.77453125 21.3484375 -35.8515625 22.171875 C-35.90054688 22.77515625 -35.94953125 23.3784375 -36 24 C-36.33 24 -36.66 24 -37 24 C-37.65568233 15.27578233 -36.22069234 9.00410399 -30.6875 2.125 C-21.59428607 -5.0649831 -10.27048448 -4.83316917 0 0 Z " fill="#6F7591" transform="translate(282,362)"/>
<path d="M0 0 C0.63228516 0.68642578 0.63228516 0.68642578 1.27734375 1.38671875 C3.47215058 3.44217276 5.9676929 4.5278344 8.66015625 5.81640625 C12.91251266 7.96743128 16.94251532 10.50564466 21 13 C20.37996094 13.30679687 19.75992188 13.61359375 19.12109375 13.9296875 C17.7479194 14.62259684 16.39262612 15.3526687 15.0625 16.125 C12.58890178 17.17440531 10.66046462 17.14780359 8 17 C8 16.34 8 15.68 8 15 C7.2575 15.061875 6.515 15.12375 5.75 15.1875 C2.41487527 14.96010513 1.36694528 14.32749619 -1 12 C-1.609375 9.30078125 -1.609375 9.30078125 -1.75 6.3125 C-1.80671875 5.31863281 -1.8634375 4.32476562 -1.921875 3.30078125 C-1.94765625 2.54152344 -1.9734375 1.78226562 -2 1 C-1.34 0.67 -0.68 0.34 0 0 Z " fill="#3D4774" transform="translate(22,367)"/>
<path d="M0 0 C4.80436782 -0.38434943 8.09024857 -0.47968712 12.4375 1.8125 C15.30855174 4.26339783 16.89431436 5.79446717 17.23046875 9.62890625 C17.20919922 11.08103516 17.20919922 11.08103516 17.1875 12.5625 C17.18105469 13.53316406 17.17460937 14.50382812 17.16796875 15.50390625 C17 18 17 18 16 20 C13.69 19.67 11.38 19.34 9 19 C9 15.37 9 11.74 9 8 C8.01 7.67 7.02 7.34 6 7 C1.33333333 2.66666667 1.33333333 2.66666667 0 0 Z " fill="#2E3A6B" transform="translate(311,361)"/>
<path d="M0 0 C5.71726954 1.14828881 8.59450077 5.19458021 11.8125 9.8125 C14.38814506 14.03816768 14.43471569 17.13118422 14 22 C10.68166794 21.72347233 9.31770884 21.33756564 7 18.875 C6.34 17.92625 5.68 16.9775 5 16 C4.55140625 15.48179687 4.1028125 14.96359375 3.640625 14.4296875 C0.14056633 10.20208855 -0.49472945 7.18122682 -0.17578125 1.72265625 C-0.11777344 1.15417969 -0.05976563 0.58570313 0 0 Z " fill="#E6E9F0" transform="translate(168,363)"/>
<path d="M0 0 C3 1 3 1 4 3 C4.07065617 5.04055005 4.08421976 7.08334257 4.0625 9.125 C4.05347656 10.22070312 4.04445313 11.31640625 4.03515625 12.4453125 C4.02355469 13.28835938 4.01195312 14.13140625 4 15 C3.34 15 2.68 15 2 15 C1.773125 15.639375 1.54625 16.27875 1.3125 16.9375 C0 19 0 19 -2.5 19.875 C-3.7375 19.936875 -3.7375 19.936875 -5 20 C-7 18 -7 18 -7.046875 14.8125 C-6.94890625 13.554375 -6.8509375 12.29625 -6.75 11 C-6.66234375 9.741875 -6.5746875 8.48375 -6.484375 7.1875 C-6 4 -6 4 -4 2 C-2.68 2 -1.36 2 0 2 C0 1.34 0 0.68 0 0 Z " fill="#414973" transform="translate(374,365)"/>
<path d="M0 0 C4.2864296 0.47626996 6.22104119 2.87367133 9 6 C13.05532509 11.63239595 14.1307354 15.07102386 14 22 C10.93158023 21.6827566 9.42354861 21.46356127 7.3046875 19.14453125 C6.83289063 18.37496094 6.36109375 17.60539062 5.875 16.8125 C5.12476563 15.59046875 5.12476563 15.59046875 4.359375 14.34375 C3.91078125 13.5703125 3.4621875 12.796875 3 12 C2.071875 10.4221875 2.071875 10.4221875 1.125 8.8125 C-0.12862451 5.67843873 -0.23894962 3.34529469 0 0 Z " fill="#E9ECF3" transform="translate(214,380)"/>
<path d="M0 0 C1.1426683 -0.00708481 2.28533661 -0.01416962 3.46263123 -0.02146912 C4.71726166 -0.0189917 5.97189209 -0.01651428 7.26454163 -0.01396179 C8.59838141 -0.0183087 9.93221869 -0.02349178 11.26605225 -0.02944946 C14.89002262 -0.04285317 18.5138888 -0.04341662 22.13787913 -0.04088616 C25.16230567 -0.03981736 28.18671105 -0.0446975 31.21113306 -0.04949158 C38.34581396 -0.06059155 45.48044221 -0.06102146 52.61512756 -0.05497742 C59.97751568 -0.04893641 67.33971275 -0.06125063 74.70206827 -0.08254749 C81.02147197 -0.10015584 87.34081481 -0.10616606 93.66024214 -0.10290974 C97.43527994 -0.10109548 101.21018146 -0.10374718 104.98519707 -0.11762428 C108.53520567 -0.13018563 112.08491618 -0.12827488 115.63492012 -0.11521339 C117.55927937 -0.11171427 119.48364764 -0.12303813 121.40797424 -0.13478088 C122.55346237 -0.12776657 123.6989505 -0.12075226 124.87915039 -0.11352539 C126.3721411 -0.113777 126.3721411 -0.113777 127.89529324 -0.1140337 C130.50306702 0.26069641 130.50306702 0.26069641 134.50306702 3.26069641 C63.71806702 2.76569641 63.71806702 2.76569641 -8.49693298 2.26069641 C-5.11246352 0.00438343 -3.96506963 0.00818109 0 0 Z " fill="#43496D" transform="translate(171.49693298339844,168.7393035888672)"/>
<path d="M0 0 C3.14550813 -0.11792821 6.29043541 -0.18781383 9.4375 -0.25 C10.31599609 -0.28351563 11.19449219 -0.31703125 12.09960938 -0.3515625 C18.21478019 -0.44182332 23.94892469 0.25479826 29 4 C29.74389648 6.13964844 29.74389648 6.13964844 30 8 C27.33333333 8 24.66666667 8 22 8 C21.21625 7.195625 20.4325 6.39125 19.625 5.5625 C16.99140305 2.52626277 16.99140305 2.52626277 12 2 C12 9.92 12 17.84 12 26 C15.465 25.505 15.465 25.505 19 25 C20.51294288 23.06402968 20.51294288 23.06402968 21 21 C22.65 22.65 24.3 24.3 26 26 C21.44622611 28.35033491 17.01762683 28.4457809 12 28 C11 27 11 27 10.88647461 24.49975586 C10.89171143 23.41573486 10.89694824 22.33171387 10.90234375 21.21484375 C10.90556641 20.04501953 10.90878906 18.87519531 10.91210938 17.66992188 C10.92048828 16.43822266 10.92886719 15.20652344 10.9375 13.9375 C10.94201172 12.70193359 10.94652344 11.46636719 10.95117188 10.19335938 C10.96300392 7.12885883 10.97948827 4.06445279 11 1 C7.37 1.33 3.74 1.66 0 2 C0 1.34 0 0.68 0 0 Z " fill="#454C6D" transform="translate(345,360)"/>
<path d="M0 0 C1.32 0.33 2.64 0.66 4 1 C4 1.66 4 2.32 4 3 C4.556875 2.814375 5.11375 2.62875 5.6875 2.4375 C8.45100857 1.91467405 10.30926649 2.22110346 13 3 C13.66 3.66 14.32 4.32 15 5 C15.66 5.33 16.32 5.66 17 6 C17.28571429 14.57142857 17.28571429 14.57142857 15 18 C12.75 18 12.75 18 10 17 C8.80378624 15.08962876 7.94601197 13.12659878 7.04296875 11.0625 C5.57529963 8.16014309 3.313324 6.25080173 1 4 C0.1875 1.6875 0.1875 1.6875 0 0 Z " fill="#313A6C" transform="translate(217,378)"/>
<path d="M0 0 C1.14726562 0.01546875 2.29453125 0.0309375 3.4765625 0.046875 C6.375 0.25 6.375 0.25 8.375 1.25 C8.375 1.91 8.375 2.57 8.375 3.25 C8.99375 3.4975 9.6125 3.745 10.25 4 C12.72568687 5.45628639 13.32625002 6.62812506 14.375 9.25 C11.4375 8 11.4375 8 8.375 6.25 C7.5 4.0625 7.5 4.0625 7.375 2.25 C6.385 2.25 5.395 2.25 4.375 2.25 C4.87 9.18 4.87 9.18 5.375 16.25 C2.375 12.25 2.375 12.25 0.5625 9.1875 C-1.87607525 5.91284181 -3.88902849 4.77835198 -7.625 3.25 C-7.625 5.23 -7.625 7.21 -7.625 9.25 C-8.615 8.26 -9.605 7.27 -10.625 6.25 C-11.615 6.745 -11.615 6.745 -12.625 7.25 C-10.04011611 1.00319726 -6.5466926 -0.14778087 0 0 Z " fill="#444B72" transform="translate(175.625,359.75)"/>
<path d="M0 0 C0.33 0 0.66 0 1 0 C1.05437607 1.58294782 1.09296271 3.16644256 1.125 4.75 C1.14820313 5.63171875 1.17140625 6.5134375 1.1953125 7.421875 C0.98632557 10.18050253 0.49992568 11.69280534 -1 14 C-5.74728514 17.53521234 -9.16972028 19.14235723 -15.0625 19.125 C-16.37927734 19.12886719 -16.37927734 19.12886719 -17.72265625 19.1328125 C-20 19 -20 19 -22 18 C-21.67 16.68 -21.34 15.36 -21 14 C-20.38125 14.20625 -19.7625 14.4125 -19.125 14.625 C-18.073125 14.810625 -18.073125 14.810625 -17 15 C-14.7763932 13.0745356 -14.7763932 13.0745356 -14 10 C-13.4225 10.804375 -12.845 11.60875 -12.25 12.4375 C-10.01873107 14.97866739 -9.25543229 15.65120368 -6 16 C-6.04125 14.88625 -6.0825 13.7725 -6.125 12.625 C-6 9 -6 9 -4 7 C-4 7.66 -4 8.32 -4 9 C-3.34 9 -2.68 9 -2 9 C-1.34 6.03 -0.68 3.06 0 0 Z " fill="#464E72" transform="translate(234,386)"/>
<path d="M0 0 C0.7734375 0.495 0.7734375 0.495 1.5625 1 C1.2325 1.99 0.9025 2.98 0.5625 4 C-1.10361905 4.042721 -2.77132885 4.04063832 -4.4375 4 C-4.7675 3.67 -5.0975 3.34 -5.4375 3 C-7.76567964 2.63239269 -10.0993385 2.29758419 -12.4375 2 C-12.4375 2.66 -12.4375 3.32 -12.4375 4 C-13.4275 4 -14.4175 4 -15.4375 4 C-15.56125 4.721875 -15.685 5.44375 -15.8125 6.1875 C-16.4375 9 -16.4375 9 -17.5625 11.375 C-19.00226084 15.69428252 -17.91328217 19.42625896 -16.625 23.6875 C-15.26899955 26.32813245 -13.63369013 28.02342889 -11.4375 30 C-15.4375 30 -15.4375 30 -16.921875 28.671875 C-20.92171664 22.59804139 -21.35414379 17.15183614 -20.4375 10 C-18.81587809 5.22048279 -16.60144853 2.81066526 -12.4375 0 C-8.17949462 -1.41933513 -4.20838462 -1.72651677 0 0 Z " fill="#494F73" transform="translate(153.4375,148)"/>
<path d="M0 0 C0.66 0 1.32 0 2 0 C2 0.66 2 1.32 2 2 C3.32 2.33 4.64 2.66 6 3 C6 6.86879985 5.41421408 10.38589735 4 14 C2 15.3125 2 15.3125 0 16 C-0.66 16.99 -1.32 17.98 -2 19 C-2.07347656 17.89591797 -2.07347656 17.89591797 -2.1484375 16.76953125 C-2.22320312 15.79371094 -2.29796875 14.81789063 -2.375 13.8125 C-2.44460938 12.84957031 -2.51421875 11.88664062 -2.5859375 10.89453125 C-2.88778048 7.96515337 -2.88778048 7.96515337 -4.1015625 5.26171875 C-4.39804687 4.51535156 -4.69453125 3.76898438 -5 3 C-4.67 2.34 -4.34 1.68 -4 1 C-2.02 1.495 -2.02 1.495 0 2 C0 1.34 0 0.68 0 0 Z " fill="#323C6D" transform="translate(413,378)"/>
<path d="M0 0 C2 2 2 2 2.22705078 5.53173828 C2.22673363 7.04463331 2.21540633 8.55755088 2.1953125 10.0703125 C2.1924826 10.86654022 2.18965271 11.66276794 2.18673706 12.48312378 C2.1755264 15.03056763 2.15042062 17.57766211 2.125 20.125 C2.11497133 21.85025535 2.10584528 23.57551619 2.09765625 25.30078125 C2.07558422 29.53398914 2.04104867 33.7669353 2 38 C1.67 38 1.34 38 1 38 C0.67 28.1 0.34 18.2 0 8 C-4.61523752 19.45546106 -4.61523752 19.45546106 -9 31 C-9.33 30.34 -9.66 29.68 -10 29 C-9.67 28.34 -9.34 27.68 -9 27 C-9.66 26.67 -10.32 26.34 -11 26 C-10.34 26 -9.68 26 -9 26 C-8.90203125 25.38253906 -8.8040625 24.76507813 -8.703125 24.12890625 C-7.60336463 17.90009103 -5.73403365 12.6775718 -3 7 C-2.40926844 5.64904428 -1.82522167 4.29513219 -1.25 2.9375 C-0.8375 1.968125 -0.425 0.99875 0 0 Z " fill="#999FB0" transform="translate(92,363)"/>
<path d="M0 0 C8.91 0 17.82 0 27 0 C27 0.33 27 0.66 27 1 C23.37 1.33 19.74 1.66 16 2 C16 3.32 16 4.64 16 6 C10.72 6 5.44 6 0 6 C0 4.02 0 2.04 0 0 Z " fill="#303966" transform="translate(390,361)"/>
<path d="M0 0 C0.33 0 0.66 0 1 0 C1.04898438 1.05960937 1.09796875 2.11921875 1.1484375 3.2109375 C1.22346709 4.59898497 1.29901485 5.98700451 1.375 7.375 C1.4059375 8.07367188 1.436875 8.77234375 1.46875 9.4921875 C1.59499498 13.70185827 1.59499498 13.70185827 4 17 C2.02 17.33 0.04 17.66 -2 18 C-2 18.66 -2 19.32 -2 20 C-4.64 20 -7.28 20 -10 20 C-9.85764543 21.72945653 -9.71095618 23.45855654 -9.5625 25.1875 C-9.44068359 26.63189453 -9.44068359 26.63189453 -9.31640625 28.10546875 C-9.02650639 30.75751558 -8.52320735 33.38396323 -8 36 C-13.28 36 -18.56 36 -24 36 C-24 35.34 -24 34.68 -24 34 C-17.07 34.495 -17.07 34.495 -10 35 C-10.495 33.515 -10.495 33.515 -11 32 C-11.56670701 27.57150602 -11.79181318 23.40757545 -11 19 C-9.10727888 16.94775569 -7.49264808 16.03444594 -4.9453125 14.9296875 C-2.65713819 14.03987222 -2.65713819 14.03987222 -1 11 C-0.54227937 8.26127045 -0.54227937 8.26127045 -0.375 5.3125 C-0.30023438 4.31863281 -0.22546875 3.32476562 -0.1484375 2.30078125 C-0.09945312 1.54152344 -0.05046875 0.78226562 0 0 Z " fill="#7B8099" transform="translate(139,369)"/>
<path d="M0 0 C0.99 4.29 1.98 8.58 3 13 C-3.23287671 13.47945205 -3.23287671 13.47945205 -6.5 11.4375 C-8 9 -8 9 -7.9375 5.375 C-6.55852841 0.41070229 -5.04929451 0 0 0 Z " fill="#414870" transform="translate(394,389)"/>
<path d="M0 0 C3.35399849 -0.0878954 6.7076964 -0.14068879 10.0625 -0.1875 C11.00544922 -0.21263672 11.94839844 -0.23777344 12.91992188 -0.26367188 C18.74143016 -0.32452388 22.88474832 0.13351568 28 3 C28.33 3.66 28.66 4.32 29 5 C28.236875 5.144375 27.47375 5.28875 26.6875 5.4375 C23.91827092 5.9632594 23.91827092 5.9632594 21 7 C20.34 6.01 19.68 5.02 19 4 C16.36 3.34 13.72 2.68 11 2 C11 9.92 11 17.84 11 26 C10.67 26 10.34 26 10 26 C10 17.75 10 9.5 10 1 C7.03 1 4.06 1 1 1 C0.67 1.66 0.34 2.32 0 3 C0 2.01 0 1.02 0 0 Z " fill="#58607C" transform="translate(117,360)"/>
<path d="M0 0 C0.33 0 0.66 0 1 0 C1 1.65 1 3.3 1 5 C1.66 5 2.32 5 3 5 C2.67 15.89 2.34 26.78 2 38 C2.66 38 3.32 38 4 38 C4 38.66 4 39.32 4 40 C2.02 40 0.04 40 -2 40 C-1.84152588 39.34298096 -1.68305176 38.68596191 -1.51977539 38.0090332 C-0.87754256 34.29108126 -0.76858603 30.61763843 -0.68359375 26.85546875 C-0.66281265 26.08568192 -0.64203156 25.31589508 -0.62062073 24.52278137 C-0.55553951 22.07777333 -0.49643409 19.63266317 -0.4375 17.1875 C-0.39427532 15.52407823 -0.35065979 13.86066656 -0.30664062 12.19726562 C-0.19990093 8.13161352 -0.09851829 4.06585929 0 0 Z " fill="#838799" transform="translate(61,365)"/>
<path d="M0 0 C3 1 3 1 5.1875 4.0625 C6.72365947 5.99314151 7.51627416 6.8744079 9.92578125 7.5 C14.39712548 7.63472977 17.35666138 6.73250396 21 4 C21 5.32 21 6.64 21 8 C17.46330969 10.35779354 15.87443306 10.26931688 11.6875 10.25 C10.57761719 10.25515625 9.46773437 10.2603125 8.32421875 10.265625 C4.9203384 9.99363456 2.17988268 9.21230021 -1 8 C-1.04241723 5.66705225 -1.04092937 3.33297433 -1 1 C-0.67 0.67 -0.34 0.34 0 0 Z " fill="#565A7A" transform="translate(20,395)"/>
<path d="M0 0 C2.04556766 2.55695957 4.0735668 5.10115436 6 7.75 C8.06624446 10.07452502 8.96896493 10.67524624 12 11 C12 9.35 12 7.7 12 6 C12.33 6 12.66 6 13 6 C14.07763474 10.49014476 14.37757467 12.33010946 12.0625 16.4375 C11.0415625 17.7059375 11.0415625 17.7059375 10 19 C9.67 18.01 9.34 17.02 9 16 C6.36 15.67 3.72 15.34 1 15 C2.32 14.34 3.64 13.68 5 13 C4.65213292 11.02463255 4.65213292 11.02463255 4 9 C3.34 8.67 2.68 8.34 2 8 C1.67 8.66 1.34 9.32 1 10 C-0.1577506 6.52674819 -0.06866652 3.63932552 0 0 Z " fill="#62698A" transform="translate(170,374)"/>
<path d="M0 0 C0.66 1.32 1.32 2.64 2 4 C4.06948291 7.13331348 6.19395819 10.22536975 8.3203125 13.3203125 C10 16 10 16 10 18 C10.66 18 11.32 18 12 18 C12 18.66 12 19.32 12 20 C7.71 20 3.42 20 -1 20 C-1.33 19.01 -1.66 18.02 -2 17 C-0.35 17 1.3 17 3 17 C3.33 14.69 3.66 12.38 4 10 C3.01 9.67 2.02 9.34 1 9 C0.67 6.03 0.34 3.06 0 0 Z " fill="#677092" transform="translate(322,385)"/>
<path d="M0 0 C0.66 0 1.32 0 2 0 C2 0.66 2 1.32 2 2 C2.72445312 1.95359375 3.44890625 1.9071875 4.1953125 1.859375 C13.08205463 1.52760329 13.08205463 1.52760329 16.6875 3.8125 C17.450625 4.534375 18.21375 5.25625 19 6 C19 6.99 19 7.98 19 9 C18.34 9 17.68 9 17 9 C17 8.01 17 7.02 17 6 C14.03 6 11.06 6 8 6 C8 5.34 8 4.68 8 4 C6.68 3.67 5.36 3.34 4 3 C4 3.66 4 4.32 4 5 C3.01 5 2.02 5 1 5 C1.33 7.64 1.66 10.28 2 13 C1.34 13 0.68 13 0 13 C-0.19551338 11.39679026 -0.38111983 9.79237014 -0.5625 8.1875 C-0.71912109 6.84751953 -0.71912109 6.84751953 -0.87890625 5.48046875 C-1 3 -1 3 0 0 Z " fill="#434A6F" transform="translate(213,375)"/>
<path d="M0 0 C0.33 0 0.66 0 1 0 C1.61891117 8.85386819 1.61891117 8.85386819 -0.6875 13.125 C-3 15 -3 15 -5.75 15.3125 C-6.86375 15.1578125 -6.86375 15.1578125 -8 15 C-6.32506868 8.87220249 -4.46036345 4.57774144 0 0 Z " fill="#323B6A" transform="translate(376,370)"/>
<path d="M0 0 C0.66 0 1.32 0 2 0 C2.33 0.66 2.66 1.32 3 2 C5.52733235 2.65555119 5.52733235 2.65555119 8 3 C8 4.98 8 6.96 8 9 C9.32 9.33 10.64 9.66 12 10 C12 10.33 12 10.66 12 11 C10.20739868 10.94004678 8.41574205 10.8512759 6.625 10.75 C5.12839844 10.68039062 5.12839844 10.68039062 3.6015625 10.609375 C1 10 1 10 -0.375 8.15625 C-1.22824112 5.21256813 -0.67065457 2.95088012 0 0 Z " fill="#323B6E" transform="translate(318,392)"/>
<path d="M0 0 C3.3 0 6.6 0 10 0 C8.53571429 6.58928571 8.53571429 6.58928571 6.125 8.4375 C4 9 4 9 0 9 C0 6.03 0 3.06 0 0 Z " fill="#F8FAFA" transform="translate(390,368)"/>
<path d="M0 0 C3.75 1 3.75 1 6 2 C6 4.97 6 7.94 6 11 C3 10 3 10 1.6875 7.625 C-0.51347867 4.2012554 -2.16751425 3.34846721 -6 2 C-9.01967741 1.77303078 -11.97903442 1.81874207 -15 2 C-10.33823953 -1.10784031 -5.46513044 -0.37442264 0 0 Z " fill="#494E6A" transform="translate(276,360)"/>
<path d="M0 0 C0.33 0 0.66 0 1 0 C1 7.92 1 15.84 1 24 C4.465 23.505 4.465 23.505 8 23 C9.51294288 21.06402968 9.51294288 21.06402968 10 19 C11.65 20.65 13.3 22.3 15 24 C10.44622611 26.35033491 6.01762683 26.4457809 1 26 C0 25 0 25 -0.11352539 22.59155273 C-0.10828857 21.54942627 -0.10305176 20.5072998 -0.09765625 19.43359375 C-0.09443359 18.30888672 -0.09121094 17.18417969 -0.08789062 16.02539062 C-0.07951172 14.84138672 -0.07113281 13.65738281 -0.0625 12.4375 C-0.05798828 11.24962891 -0.05347656 10.06175781 -0.04882812 8.83789062 C-0.03699675 5.89187774 -0.02051287 2.94596319 0 0 Z " fill="#6D728B" transform="translate(356,362)"/>
<path d="M0 0 C1.65 1.65 3.3 3.3 5 5 C4.67 5.66 4.34 6.32 4 7 C4.99 7 5.98 7 7 7 C7.33 7.99 7.66 8.98 8 10 C5.42786866 11.61949011 4.32330841 12.04408751 1.25 11.625 C0.13625 11.315625 0.13625 11.315625 -1 11 C-1.33 7.7 -1.66 4.4 -2 1 C-1.34 0.67 -0.68 0.34 0 0 Z " fill="#2E396F" transform="translate(22,367)"/>
<path d="M0 0 C0.99 0.33 1.98 0.66 3 1 C2.67 1.99 2.34 2.98 2 4 C2.87914688 6.6569191 2.87914688 6.6569191 4 9 C3.01 9.33 2.02 9.66 1 10 C1 9.01 1 8.02 1 7 C0.34 7 -0.32 7 -1 7 C-1.02694851 8.95825873 -1.04637218 10.91662226 -1.0625 12.875 C-1.07410156 13.96554687 -1.08570313 15.05609375 -1.09765625 16.1796875 C-1.19744303 18.95177546 -1.19744303 18.95177546 0 21 C-0.99 20.67 -1.98 20.34 -3 20 C-3.33 14.06 -3.66 8.12 -4 2 C-2.68 1.34 -1.36 0.68 0 0 Z " fill="#2E3969" transform="translate(143,364)"/>
<path d="M0 0 C1.65 0.33 3.3 0.66 5 1 C4.7834375 1.9590625 4.7834375 1.9590625 4.5625 2.9375 C3.82763202 6.93844788 3.41418889 10.95504896 3 15 C0.70986347 11.5647952 0.82157027 10.014669 1 6 C-2.80984844 8.77079887 -3.06840752 12.62868145 -4 17 C-4.33 17 -4.66 17 -5 17 C-5.7342166 10.24520726 -3.27591952 5.81475715 0 0 Z " fill="#2F3966" transform="translate(251,367)"/>
<path d="M0 0 C-0.721875 0.70125 -1.44375 1.4025 -2.1875 2.125 C-4.99823813 4.92770745 -7.49516226 7.92262792 -10 11 C-10.33 9.68 -10.66 8.36 -11 7 C-12.65 7 -14.3 7 -16 7 C-11.26268805 1.70535723 -7.15031119 -0.42060654 0 0 Z " fill="#686B84" transform="translate(227,360)"/>
<path d="M0 0 C0.33 0 0.66 0 1 0 C1.33 10.56 1.66 21.12 2 32 C4.64 32 7.28 32 10 32 C10.33 30.68 10.66 29.36 11 28 C11.33 29.65 11.66 31.3 12 33 C7.05 33 2.1 33 -3 33 C-3 32.34 -3 31.68 -3 31 C-2.34 31 -1.68 31 -1 31 C-0.67 20.77 -0.34 10.54 0 0 Z " fill="#52597B" transform="translate(297,372)"/>
<path d="M0 0 C-0.33 1.32 -0.66 2.64 -1 4 C0.093125 3.938125 1.18625 3.87625 2.3125 3.8125 C6 4 6 4 7.73046875 5.51171875 C8.35888672 6.24841797 8.35888672 6.24841797 9 7 C6.91781638 7.10832169 4.83400871 7.18573541 2.75 7.25 C1.00976562 7.31960938 1.00976562 7.31960938 -0.765625 7.390625 C-4 7 -4 7 -6.421875 5.109375 C-8 3 -8 3 -8 1 C-5.07175348 0.02391783 -3.04386724 -0.08226668 0 0 Z " fill="#313A68" transform="translate(263,397)"/>
<path d="M0 0 C0.33 0 0.66 0 1 0 C1.05437607 1.58294782 1.09296271 3.16644256 1.125 4.75 C1.14820313 5.63171875 1.17140625 6.5134375 1.1953125 7.421875 C0.98616804 10.18258182 0.50234878 11.69175551 -1 14 C-6.33333333 18 -6.33333333 18 -9 18 C-9 17.34 -9 16.68 -9 16 C-8.01 16 -7.02 16 -6 16 C-6.04125 14.88625 -6.0825 13.7725 -6.125 12.625 C-6 9 -6 9 -4 7 C-4 7.66 -4 8.32 -4 9 C-3.34 9 -2.68 9 -2 9 C-1.34 6.03 -0.68 3.06 0 0 Z " fill="#535879" transform="translate(234,386)"/>
<path d="M0 0 C2.26111429 3.01481906 3.75033209 5.27872609 5.25 8.625 C5.60578125 9.40101563 5.9615625 10.17703125 6.328125 10.9765625 C7 13 7 13 6 15 C3 10.375 3 10.375 3 7 C2.34 7 1.68 7 1 7 C1 14.92 1 22.84 1 31 C0.67 31 0.34 31 0 31 C0 20.77 0 10.54 0 0 Z " fill="#CED2E4" transform="translate(63,372)"/>
<path d="M0 0 C4.22395248 1.36113355 6.42893626 3.15484885 9.3125 6.5 C10.00988281 7.2940625 10.70726562 8.088125 11.42578125 8.90625 C13 11 13 11 13 13 C12.34 13 11.68 13 11 13 C11 13.66 11 14.32 11 15 C10.34 14.67 9.68 14.34 9 14 C9 12.68 9 11.36 9 10 C7.68 9.67 6.36 9.34 5 9 C5 8.01 5 7.02 5 6 C3.68 5.34 2.36 4.68 1 4 C1.33 3.34 1.66 2.68 2 2 C1.34 2 0.68 2 0 2 C0 1.34 0 0.68 0 0 Z " fill="#434A70" transform="translate(318,97)"/>
<path d="M0 0 C1.875 1.5625 1.875 1.5625 3 3 C2.01 3.495 2.01 3.495 1 4 C1 3.34 1 2.68 1 2 C0.34 2 -0.32 2 -1 2 C-1 2.66 -1 3.32 -1 4 C-2.32 3.67 -3.64 3.34 -5 3 C-5 4.65 -5 6.3 -5 8 C-8.465 6.02 -8.465 6.02 -12 4 C-11.01 3.67 -10.02 3.34 -9 3 C-8.67 2.01 -8.34 1.02 -8 0 C-5.06317146 -1.46841427 -3.13175678 -0.76696084 0 0 Z " fill="#474E78" transform="translate(414,376)"/>
<path d="M0 0 C0.66 0.33 1.32 0.66 2 1 C1.54625 1.4125 1.0925 1.825 0.625 2.25 C-1.05950374 4.06408095 -1.99265971 5.75285627 -3 8 C-4.32 8 -5.64 8 -7 8 C-7.226875 8.7425 -7.45375 9.485 -7.6875 10.25 C-9.2589561 13.5425747 -10.99995716 14.97497109 -14 17 C-14.66 17 -15.32 17 -16 17 C-15.505 15.515 -15.505 15.515 -15 14 C-14.34 14 -13.68 14 -13 14 C-12.67902344 13.17242187 -12.67902344 13.17242187 -12.3515625 12.328125 C-10.546489 9.21880764 -8.05199936 7.08727863 -5.375 4.75 C-4.859375 4.29109375 -4.34375 3.8321875 -3.8125 3.359375 C-2.5465398 2.23407704 -1.27392058 1.11627823 0 0 Z " fill="#565E83" transform="translate(137,82)"/>
<path d="M0 0 C0.33 1.65 0.66 3.3 1 5 C-0.65 5.33 -2.3 5.66 -4 6 C-4 6.66 -4 7.32 -4 8 C-4.99 7.67 -5.98 7.34 -7 7 C-7 6.34 -7 5.68 -7 5 C-8.65 5 -10.3 5 -12 5 C-12.33 4.34 -12.66 3.68 -13 3 C-11.58603098 2.49242138 -10.16868271 1.99425075 -8.75 1.5 C-7.96109375 1.2215625 -7.1721875 0.943125 -6.359375 0.65625 C-4 0 -4 0 0 0 Z " fill="#30386A" transform="translate(43,381)"/>
<path d="M0 0 C0.515625 0.515625 1.03125 1.03125 1.5625 1.5625 C5.02356361 3.60364008 7.17371017 2.90439578 11 2 C11.99 1.34 12.98 0.68 14 0 C14 1.32 14 2.64 14 4 C11.31874409 6.68125591 9.85875084 6.29880654 6.125 6.3125 C5.07570313 6.32925781 4.02640625 6.34601563 2.9453125 6.36328125 C-0.28698414 5.96460275 -1.62995258 5.16968109 -4 3 C-2.68 2.67 -1.36 2.34 0 2 C0 1.34 0 0.68 0 0 Z " fill="#6A6E85" transform="translate(396,399)"/>
<path d="M0 0 C0.33 0 0.66 0 1 0 C1 2.31 1 4.62 1 7 C5.29 7 9.58 7 14 7 C14 7.33 14 7.66 14 8 C10.04 8 6.08 8 2 8 C2 10.97 2 13.94 2 17 C2.66 17.33 3.32 17.66 4 18 C3.67 18.66 3.34 19.32 3 20 C2.01 20 1.02 20 0 20 C0 13.4 0 6.8 0 0 Z " fill="#8C91A6" transform="translate(388,360)"/>
<path d="M0 0 C1.32 1.65 2.64 3.3 4 5 C1.23735711 5.59732819 -1.16032769 6 -4 6 C-4 6.66 -4 7.32 -4 8 C-2.35 8.33 -0.7 8.66 1 9 C-0.98 9.99 -0.98 9.99 -3 11 C-4.98 9.68 -6.96 8.36 -9 7 C-8.67 6.34 -8.34 5.68 -8 5 C-7.34 5.33 -6.68 5.66 -6 6 C-6 5.34 -6 4.68 -6 4 C-2.25 2.875 -2.25 2.875 0 4 C0 2.68 0 1.36 0 0 Z " fill="#475177" transform="translate(259,392)"/>
<path d="M0 0 C2.39774745 -0.13572155 4.78775245 -0.23436868 7.1875 -0.3125 C8.19780273 -0.3753418 8.19780273 -0.3753418 9.22851562 -0.43945312 C13.18862801 -0.53604123 14.83060527 -0.13219432 17.98828125 2.33203125 C20 5 20 5 20 8 C16.0521912 8 14.81491174 6.66275435 12 4 C12 3.01 12 2.02 12 1 C5.565 1.495 5.565 1.495 -1 2 C-0.67 1.34 -0.34 0.68 0 0 Z " fill="#646C8C" transform="translate(287,197)"/>
<path d="M0 0 C0.7734375 0.495 0.7734375 0.495 1.5625 1 C1.2325 1.99 0.9025 2.98 0.5625 4 C-1.10361905 4.042721 -2.77132885 4.04063832 -4.4375 4 C-4.7675 3.67 -5.0975 3.34 -5.4375 3 C-7.76567964 2.63239269 -10.0993385 2.29758419 -12.4375 2 C-12.4375 1.34 -12.4375 0.68 -12.4375 0 C-8.17949462 -1.41933513 -4.20838462 -1.72651677 0 0 Z " fill="#333B65" transform="translate(153.4375,148)"/>
<path d="M0 0 C1.485 0.7115625 1.485 0.7115625 3 1.4375 C6.99189495 3.16813748 10.68114582 3.62115314 15 4 C12.49447774 6.61940964 11.14652509 7.95696227 7.3984375 8.09765625 C5.90183594 8.08025391 5.90183594 8.08025391 4.375 8.0625 C3.37210937 8.05347656 2.36921875 8.04445313 1.3359375 8.03515625 C0.56507813 8.02355469 -0.20578125 8.01195312 -1 8 C-1 7.67 -1 7.34 -1 7 C3.455 6.505 3.455 6.505 8 6 C3.545 5.01 3.545 5.01 -1 4 C-0.67 2.68 -0.34 1.36 0 0 Z " fill="#565C7E" transform="translate(263,397)"/>
<path d="M0 0 C0.33 0.99 0.66 1.98 1 3 C2.32 2.67 3.64 2.34 5 2 C4 5 4 5 0.75 6.6875 C-2.54126631 7.83944321 -4.5872117 8.31025348 -8 8 C-5.33333333 5.33333333 -2.66666667 2.66666667 0 0 Z " fill="#565D7D" transform="translate(176,397)"/>
<path d="M0 0 C5.95319301 -0.55811184 11.1356474 1.75709826 16 5 C15.360625 5.12375 14.72125 5.2475 14.0625 5.375 C13.381875 5.58125 12.70125 5.7875 12 6 C11.67 6.66 11.34 7.32 11 8 C9 7 9 7 8 5 C6.10466658 4.53476937 6.10466658 4.53476937 3.9375 4.375 C2.638125 4.25125 1.33875 4.1275 0 4 C0 2.68 0 1.36 0 0 Z " fill="#474F77" transform="translate(127,201)"/>
<path d="M0 0 C5.75 -0.125 5.75 -0.125 8 1 C8.125 3.875 8.125 3.875 8 7 C7.34 7.66 6.68 8.32 6 9 C5.731875 8.195625 5.46375 7.39125 5.1875 6.5625 C4.795625 5.716875 4.40375 4.87125 4 4 C3.01 3.67 2.02 3.34 1 3 C0.67 2.01 0.34 1.02 0 0 Z " fill="#474C6B" transform="translate(39,361)"/>
<path d="M0 0 C7.73470033 0.29409507 13.98157575 1.72676526 21 5 C20.34 5.66 19.68 6.32 19 7 C17.68 7 16.36 7 15 7 C15 6.34 15 5.68 15 5 C12.69 4.67 10.38 4.34 8 4 C8 3.34 8 2.68 8 2 C5.36 1.67 2.72 1.34 0 1 C0 0.67 0 0.34 0 0 Z " fill="#606787" transform="translate(242,55)"/>
<path d="M0 0 C3.35928507 0.83982127 5.678497 1.73772123 8.375 3.9375 C10.80831708 8.52336681 10.32081051 12.91158887 10 18 C9.67 18 9.34 18 9 18 C8.86722656 17.32453125 8.73445313 16.6490625 8.59765625 15.953125 C8.42105469 15.06109375 8.24445313 14.1690625 8.0625 13.25 C7.88847656 12.36828125 7.71445312 11.4865625 7.53515625 10.578125 C7.07631512 8.36764947 6.56663926 6.18487932 6 4 C4.35 4 2.7 4 1 4 C0.67 2.68 0.34 1.36 0 0 Z " fill="#565D7D" transform="translate(318,361)"/>
<path d="M0 0 C0 3.53312317 -1.02741002 5.14376773 -3.33349609 7.77441406 C-6.54521273 10.13638557 -10.04302434 9.35526848 -13.8125 8.875 C-14.60076172 8.80023438 -15.38902344 8.72546875 -16.20117188 8.6484375 C-18.13708149 8.46071293 -20.06915803 8.23417047 -22 8 C-22 7.67 -22 7.34 -22 7 C-21.21496094 6.96261719 -20.42992188 6.92523438 -19.62109375 6.88671875 C-9.58266462 6.2767883 -9.58266462 6.2767883 -1.0625 1.3125 C-0.5365625 0.6628125 -0.5365625 0.6628125 0 0 Z " fill="#D1D6E3" transform="translate(48,398)"/>
<path d="M0 0 C7.38461538 -0.49230769 7.38461538 -0.49230769 10.5 2 C10.995 2.66 11.49 3.32 12 4 C10.8553125 4.2165625 10.8553125 4.2165625 9.6875 4.4375 C6.91827092 4.9632594 6.91827092 4.9632594 4 6 C2.68 4.02 1.36 2.04 0 0 Z " fill="#464C72" transform="translate(134,361)"/>
<path d="M0 0 C0.66 0.33 1.32 0.66 2 1 C1.67 1.99 1.34 2.98 1 4 C-0.1446875 4.1546875 -0.1446875 4.1546875 -1.3125 4.3125 C-4.24342658 5.06227192 -5.01517162 5.83473267 -7 8 C-10.47325181 9.1577506 -13.36067448 9.06866652 -17 9 C-15 7 -15 7 -11.3125 6.1875 C-6.64753067 5.13852152 -3.72314796 2.94749213 0 0 Z " fill="#474D6F" transform="translate(319,246)"/>
<path d="M0 0 C1.65 0 3.3 0 5 0 C5.125 5.75 5.125 5.75 4 8 C3.34 8 2.68 8 2 8 C2 7.34 2 6.68 2 6 C1.01 5.67 0.02 5.34 -1 5 C-0.67 3.35 -0.34 1.7 0 0 Z " fill="#32386A" transform="translate(211,367)"/>
<path d="M0 0 C1.61645849 3.23291699 0.67792481 6.56970045 0 10 C-1.0625 12.5 -1.0625 12.5 -2 14 C-2.66 13.67 -3.32 13.34 -4 13 C-6.11683841 13.89163577 -6.11683841 13.89163577 -8 15 C-6.85657478 12.68628057 -5.71038936 10.37400323 -4.5625 8.0625 C-4.23701172 7.40314453 -3.91152344 6.74378906 -3.57617188 6.06445312 C-1.11328125 1.11328125 -1.11328125 1.11328125 0 0 Z " fill="#6B7394" transform="translate(334,226)"/>
<path d="M0 0 C9.20511096 0.78009415 9.20511096 0.78009415 13 4 C13.8125 6.6875 13.8125 6.6875 14 9 C13.175 8.4225 12.35 7.845 11.5 7.25 C7.84429532 4.80120261 3.96533591 2.89208922 0 1 C0 0.67 0 0.34 0 0 Z " fill="#4F557B" transform="translate(310,174)"/>
<path d="M0 0 C-0.33 1.65 -0.66 3.3 -1 5 C-2.43554025 5.50559908 -3.8735202 6.0042749 -5.3125 6.5 C-6.51326172 6.91765625 -6.51326172 6.91765625 -7.73828125 7.34375 C-10 8 -10 8 -13 8 C-3.28571429 0 -3.28571429 0 0 0 Z " fill="#596081" transform="translate(152,73)"/>
<path d="M0 0 C0.33 0 0.66 0 1 0 C1.28328381 3.70787035 1.46346554 7.30318076 1 11 C-1.5 13.1875 -1.5 13.1875 -4 14 C-4 12.35 -4 10.7 -4 9 C-3.34 9 -2.68 9 -2 9 C-1.34 6.03 -0.68 3.06 0 0 Z " fill="#565C7F" transform="translate(283,387)"/>
<path d="M0 0 C4.93264249 2.64248705 4.93264249 2.64248705 7 5 C7.61912129 8.40776842 7.41905531 11.57438913 7 15 C6.67 15 6.34 15 6 15 C5.87625 14.21625 5.7525 13.4325 5.625 12.625 C5.20882007 9.85942178 5.20882007 9.85942178 3 8 C3 7.01 3 6.02 3 5 C2.34 5 1.68 5 1 5 C0.67 3.35 0.34 1.7 0 0 Z " fill="#525879" transform="translate(43,381)"/>
<path d="M0 0 C0.33 0.66 0.66 1.32 1 2 C0.0625 4.625 0.0625 4.625 -1 7 C-1.33 6.34 -1.66 5.68 -2 5 C-3.65 5 -5.3 5 -7 5 C-7 8.63 -7 12.26 -7 16 C-7.33 16 -7.66 16 -8 16 C-8 12.04 -8 8.08 -8 4 C-5.36 2.68 -2.72 1.36 0 0 Z " fill="#6B728E" transform="translate(314,384)"/>
<path d="M0 0 C0.721875 0.474375 1.44375 0.94875 2.1875 1.4375 C4.89475226 2.94152903 6.96194275 3.56599182 10 4 C10.33 4.99 10.66 5.98 11 7 C12.65 7.33 14.3 7.66 16 8 C16.33 8.99 16.66 9.98 17 11 C10.33373883 9.69573151 5.1541265 6.39708176 0 2 C0 1.34 0 0.68 0 0 Z " fill="#676F8E" transform="translate(20,378)"/>
<path d="M0 0 C0.66 0 1.32 0 2 0 C2 0.66 2 1.32 2 2 C3.32 2.33 4.64 2.66 6 3 C5.34 3 4.68 3 4 3 C4 3.66 4 4.32 4 5 C3.01 5 2.02 5 1 5 C1.33 7.64 1.66 10.28 2 13 C1.34 13 0.68 13 0 13 C-0.19551338 11.39679026 -0.38111983 9.79237014 -0.5625 8.1875 C-0.71912109 6.84751953 -0.71912109 6.84751953 -0.87890625 5.48046875 C-1 3 -1 3 0 0 Z " fill="#585E84" transform="translate(213,375)"/>
<path d="M0 0 C0.33 1.32 0.66 2.64 1 4 C-2.63195496 6.42130331 -4.38349348 6.21022785 -8.6875 6.125 C-9.86699219 6.10695313 -11.04648437 6.08890625 -12.26171875 6.0703125 C-13.16535156 6.04710937 -14.06898437 6.02390625 -15 6 C-11.40687138 4.0311624 -8.0191867 3.3058952 -4.0234375 2.5625 C-1.7933256 2.1212482 -1.7933256 2.1212482 0 0 Z " fill="#6D6F86" transform="translate(40,399)"/>
<path d="M0 0 C1.95825873 -0.02694851 3.91662226 -0.04637218 5.875 -0.0625 C6.96554687 -0.07410156 8.05609375 -0.08570313 9.1796875 -0.09765625 C12 0 12 0 14 1 C14 1.66 14 2.32 14 3 C9.71 3 5.42 3 1 3 C0.67 2.01 0.34 1.02 0 0 Z " fill="#5F667F" transform="translate(320,402)"/>
<path d="M0 0 C0.66 0 1.32 0 2 0 C2 4.95 2 9.9 2 15 C1.34 14.67 0.68 14.34 0 14 C-0.44921875 11.34765625 -0.44921875 11.34765625 -0.6875 8.0625 C-0.77386719 6.98097656 -0.86023438 5.89945312 -0.94921875 4.78515625 C-1 2 -1 2 0 0 Z " fill="#52597C" transform="translate(355,388)"/>
<path d="M0 0 C0.92565097 3.04838441 1.04155806 5.46489969 0.6875 8.625 C0.60886719 9.40101563 0.53023437 10.17703125 0.44921875 10.9765625 C0 13 0 13 -2 15 C-2 10.38 -2 5.76 -2 1 C-1.34 0.67 -0.68 0.34 0 0 Z " fill="#353E63" transform="translate(206,377)"/>
<path d="M0 0 C1.31534494 3.65857532 0.65468309 6.08026481 -0.4375 9.75 C-0.72496094 10.73484375 -1.01242188 11.7196875 -1.30859375 12.734375 C-1.53675781 13.48203125 -1.76492187 14.2296875 -2 15 C-2.66 15 -3.32 15 -4 15 C-4.33 15.99 -4.66 16.98 -5 18 C-4.51030705 11.38914524 -2.66557258 6.05022986 0 0 Z " fill="#626987" transform="translate(97,134)"/>
<path d="M0 0 C2.33294775 -0.04241723 4.66702567 -0.04092937 7 0 C8 1 8 1 8.0625 3.5625 C8.041875 4.366875 8.02125 5.17125 8 6 C7.01 6.495 7.01 6.495 6 7 C1.125 2.25 1.125 2.25 0 0 Z " fill="#3C4267" transform="translate(311,361)"/>
<path d="M0 0 C2.33002055 2.33002055 2.41956957 3.24690495 2.8125 6.4375 C2.92207031 7.21996094 3.03164063 8.00242188 3.14453125 8.80859375 C3 11 3 11 1.51171875 12.78515625 C1.01285156 13.18605469 0.51398438 13.58695313 0 14 C-0.5625 12.0625 -0.5625 12.0625 -1 10 C-0.67 9.67 -0.34 9.34 0 9 C0.07179964 7.48071962 0.08392007 5.95832518 0.0625 4.4375 C0.05347656 3.61121094 0.04445313 2.78492188 0.03515625 1.93359375 C0.02355469 1.29550781 0.01195312 0.65742188 0 0 Z " fill="#676C8C" transform="translate(308,205)"/>
<path d="M0 0 C0.66 0.33 1.32 0.66 2 1 C1.71125 1.70125 1.4225 2.4025 1.125 3.125 C-0.02133588 6.05452503 -1.02625654 9.00921653 -2 12 C-3.125 8.25 -3.125 8.25 -2 6 C-2.66 6 -3.32 6 -4 6 C-4 5.01 -4 4.02 -4 3 C-2 1.3125 -2 1.3125 0 0 Z " fill="#454D77" transform="translate(111,138)"/>
<path d="M0 0 C2 3 2 3 1.609375 5.6640625 C1.32578125 6.64117187 1.0421875 7.61828125 0.75 8.625 C0.47671875 9.60726563 0.2034375 10.58953125 -0.078125 11.6015625 C-1 14 -1 14 -3 15 C-2.67 13.68 -2.34 12.36 -2 11 C-2.66 10.67 -3.32 10.34 -4 10 C-3.34 10 -2.68 10 -2 10 C-1.34 6.7 -0.68 3.4 0 0 Z " fill="#8D90A1" transform="translate(85,379)"/>
<path d="M0 0 C3.00617269 3.00617269 2.59585316 5.82381598 3 10 C3.66 10 4.32 10 5 10 C4.67 10.66 4.34 11.32 4 12 C3.34 11.67 2.68 11.34 2 11 C2 10.34 2 9.68 2 9 C1.01 8.67 0.02 8.34 -1 8 C-0.67 5.36 -0.34 2.72 0 0 Z " fill="#525A7C" transform="translate(78,380)"/>
<path d="M0 0 C1 2 1 2 0.546875 3.91015625 C0.28390625 4.62042969 0.0209375 5.33070313 -0.25 6.0625 C-0.62898437 7.13177734 -0.62898437 7.13177734 -1.015625 8.22265625 C-2 10 -2 10 -5 11 C-4.54663921 6.12637153 -3.2910841 3.60957611 0 0 Z " fill="#555B7B" transform="translate(210,367)"/>
<path d="M0 0 C2.4375 0.8125 2.4375 0.8125 5 2 C5.33 2.99 5.66 3.98 6 5 C7.62652316 6.70586575 9.29006566 8.3777546 11 10 C10.67 10.99 10.34 11.98 10 13 C9.52949219 12.37351562 9.05898437 11.74703125 8.57421875 11.1015625 C7.95160156 10.28429687 7.32898438 9.46703125 6.6875 8.625 C6.07261719 7.81289063 5.45773438 7.00078125 4.82421875 6.1640625 C3.00519317 3.80220611 3.00519317 3.80220611 0 2 C0 1.34 0 0.68 0 0 Z " fill="#585E81" transform="translate(112,267)"/>
<path d="M0 0 C0.66 0.66 1.32 1.32 2 2 C-2.30769231 5.93846154 -2.30769231 5.93846154 -5.8125 6.25 C-6.534375 6.1675 -7.25625 6.085 -8 6 C-7.34 4.35 -6.68 2.7 -6 1 C-3.03 1.495 -3.03 1.495 0 2 C0 1.34 0 0.68 0 0 Z " fill="#3B4268" transform="translate(416,397)"/>
<path d="M0 0 C0.66 0 1.32 0 2 0 C1.52794881 4.24846075 -0.88877522 6.26819288 -4 9 C-4.66 9 -5.32 9 -6 9 C-6 9.66 -6 10.32 -6 11 C-6.66 11 -7.32 11 -8 11 C-6.87076624 7.95106884 -5.3656342 6.35458426 -2.875 4.375 C-1.92625 3.59125 -0.9775 2.8075 0 2 C0 1.34 0 0.68 0 0 Z " fill="#D6DAE4" transform="translate(226,359)"/>
<path d="M0 0 C0.33 0 0.66 0 1 0 C1.48676056 7.42309859 1.48676056 7.42309859 -0.6875 10 C-3.3119388 11.13489245 -5.16910178 11.23590819 -8 11 C-7.34 10.34 -6.68 9.68 -6 9 C-5.01 9 -4.02 9 -3 9 C-2.814375 7.88625 -2.814375 7.88625 -2.625 6.75 C-2.04513299 4.19858515 -1.26291261 2.2732427 0 0 Z " fill="#4C5473" transform="translate(331,110)"/>
<path d="M0 0 C0.66 0.33 1.32 0.66 2 1 C2 2.65 2 4.3 2 6 C2.66 6 3.32 6 4 6 C4 6.66 4 7.32 4 8 C2.02 8 0.04 8 -2 8 C-1.34 5.36 -0.68 2.72 0 0 Z " fill="#686A80" transform="translate(61,397)"/>
<path d="M0 0 C0.33 0 0.66 0 1 0 C1.10794277 2.26979665 1.18556176 4.54105196 1.25 6.8125 C1.29640625 8.07707031 1.3428125 9.34164063 1.390625 10.64453125 C1 14 1 14 -1.015625 15.94921875 C-1.67046875 16.29597656 -2.3253125 16.64273437 -3 17 C-3.66 16.67 -4.32 16.34 -5 16 C-4.360625 15.401875 -3.72125 14.80375 -3.0625 14.1875 C-0.12860483 9.65329837 -0.18569688 5.30164592 0 0 Z " fill="#7D83A2" transform="translate(139,369)"/>
<path d="M0 0 C2.40072955 2.88087546 4.47291037 5.56404834 6 9 C4.68 8.67 3.36 8.34 2 8 C1.67 8.66 1.34 9.32 1 10 C-0.1577506 6.52674819 -0.06866652 3.63932552 0 0 Z " fill="#585F81" transform="translate(170,374)"/>
<path d="M0 0 C0.66 0.33 1.32 0.66 2 1 C0.71937515 2.7074998 -0.61767557 4.37373596 -2 6 C-2.66 6 -3.32 6 -4 6 C-4 6.66 -4 7.32 -4 8 C-5.98 8 -7.96 8 -10 8 C-7.92141021 5.81907964 -5.78143382 4.03609531 -3.3125 2.3125 C-2.68988281 1.87550781 -2.06726563 1.43851562 -1.42578125 0.98828125 C-0.95527344 0.66214844 -0.48476563 0.33601563 0 0 Z " fill="#D0D6E5" transform="translate(301,296)"/>
<path d="M0 0 C0.66 0 1.32 0 2 0 C3.10844919 3.32534757 2.84454356 5.62182575 2 9 C0.5 7.8125 0.5 7.8125 -1 6 C-1.25 3.375 -1.25 3.375 -1 1 C-0.67 0.67 -0.34 0.34 0 0 Z " fill="#3A4370" transform="translate(314,387)"/>
<path d="M0 0 C0.33 0.66 0.66 1.32 1 2 C0.67 2.99 0.34 3.98 0 5 C1.98 5 3.96 5 6 5 C6.33 5.66 6.66 6.32 7 7 C4.03 7 1.06 7 -2 7 C-1.125 1.125 -1.125 1.125 0 0 Z " fill="#B8BDD2" transform="translate(217,370)"/>
<path d="M0 0 C0.66 0 1.32 0 2 0 C0.6302836 3.99500618 -1.25722422 6.80009492 -4 10 C-4.33 8.68 -4.66 7.36 -5 6 C-4.34 6 -3.68 6 -3 6 C-2.690625 5.195625 -2.38125 4.39125 -2.0625 3.5625 C-1 1 -1 1 0 0 Z " fill="#3C456B" transform="translate(334,257)"/>
<path d="M0 0 C3.09592835 3.5087188 4.74194623 6.49197399 6 11 C5.34 11 4.68 11 4 11 C4 10.34 4 9.68 4 9 C3.01 8.67 2.02 8.34 1 8 C0.67 5.36 0.34 2.72 0 0 Z " fill="#606887" transform="translate(108,178)"/>
<path d="M0 0 C0.33 0 0.66 0 1 0 C1 1.98 1 3.96 1 6 C1.99 6 2.98 6 4 6 C3.67 7.32 3.34 8.64 3 10 C1.35 10 -0.3 10 -2 10 C-1.34 6.7 -0.68 3.4 0 0 Z " fill="#43496D" transform="translate(41,393)"/>
<path d="M0 0 C1.32 0.66 2.64 1.32 4 2 C3.67 3.65 3.34 5.3 3 7 C2.34 7 1.68 7 1 7 C-0.625 4.5 -0.625 4.5 -2 2 C-1.34 1.34 -0.68 0.68 0 0 Z " fill="#3D4570" transform="translate(283,220)"/>
<path d="M0 0 C0.66 0.33 1.32 0.66 2 1 C1.54625 1.4125 1.0925 1.825 0.625 2.25 C-1.11586032 3.90608349 -1.11586032 3.90608349 -1.8125 6.125 C-3 8 -3 8 -6.125 8.75 C-7.548125 8.87375 -7.548125 8.87375 -9 9 C-6 6 -3 3 0 0 Z " fill="#5F6586" transform="translate(137,82)"/>
<path d="M0 0 C3.465 1.98 3.465 1.98 7 4 C7 4.99 7 5.98 7 7 C4.0280615 5.87548273 1.66559313 4.77706209 -1 3 C-0.67 2.01 -0.34 1.02 0 0 Z " fill="#494D72" transform="translate(113,206)"/>
<path d="M0 0 C0.66 0 1.32 0 2 0 C2.33 2.64 2.66 5.28 3 8 C1.68 7.67 0.36 7.34 -1 7 C-0.67 4.69 -0.34 2.38 0 0 Z " fill="#595E7D" transform="translate(387,391)"/>
<path d="M0 0 C0.33 0 0.66 0 1 0 C1 2.97 1 5.94 1 9 C0.01 8.67 -0.98 8.34 -2 8 C-3.1875 5.4375 -3.1875 5.4375 -4 3 C-3.01 3 -2.02 3 -1 3 C-0.67 2.01 -0.34 1.02 0 0 Z " fill="#646982" transform="translate(281,362)"/>
<path d="M0 0 C0.99 0.66 1.98 1.32 3 2 C-1.61073111 3.29676812 -5.33840089 2.71109139 -10 2 C-6.31282562 -0.45811625 -4.35654296 -0.31118164 0 0 Z " fill="#636885" transform="translate(151,147)"/>
<path d="M0 0 C1.65 1.65 3.3 3.3 5 5 C3.02 5.99 3.02 5.99 1 7 C0.01 6.34 -0.98 5.68 -2 5 C-1.34 4.34 -0.68 3.68 0 3 C0 2.01 0 1.02 0 0 Z " fill="#4F5680" transform="translate(219,396)"/>
<path d="M0 0 C0.66 0 1.32 0 2 0 C2.6875 3.25 2.6875 3.25 3 7 C2.01 8.32 1.02 9.64 0 11 C0 7.37 0 3.74 0 0 Z " fill="#434C74" transform="translate(411,386)"/>
<path d="M0 0 C1.875 0.125 1.875 0.125 4 1 C5.25 4.0625 5.25 4.0625 6 7 C4.68 7 3.36 7 2 7 C1.34 4.69 0.68 2.38 0 0 Z " fill="#5C6185" transform="translate(213,389)"/>
<path d="M0 0 C3.78383679 0.92493788 5.56693694 1.39371171 7.875 4.625 C8.431875 5.800625 8.431875 5.800625 9 7 C6 7 6 7 3.375 4.625 C1 2 1 2 0 0 Z " fill="#535880" transform="translate(217,380)"/>
<path d="M0 0 C2.31 0 4.62 0 7 0 C4.09427672 2.47524576 1.84177074 3.69670231 -2 4 C-2.66 3.34 -3.32 2.68 -4 2 C-2.68 2 -1.36 2 0 2 C0 1.34 0 0.68 0 0 Z " fill="#3C436B" transform="translate(265,312)"/>
<path d="M0 0 C0 0.99 0 1.98 0 3 C-0.99 3 -1.98 3 -3 3 C-3.103125 3.639375 -3.20625 4.27875 -3.3125 4.9375 C-3.539375 5.618125 -3.76625 6.29875 -4 7 C-4.99 7.33 -5.98 7.66 -7 8 C-4.18918919 0 -4.18918919 0 0 0 Z " fill="#666E8C" transform="translate(141,149)"/>
<path d="M0 0 C2.04119788 1.61594832 4.04072937 3.2856382 6 5 C6 5.66 6 6.32 6 7 C5.34 7 4.68 7 4 7 C4 7.66 4 8.32 4 9 C2 8 2 8 1.3671875 6.15234375 C1.20476562 5.42144531 1.04234375 4.69054687 0.875 3.9375 C0.70742188 3.20402344 0.53984375 2.47054687 0.3671875 1.71484375 C0.24601562 1.14894531 0.12484375 0.58304687 0 0 Z " fill="#5C6383" transform="translate(325,103)"/>
<path d="M0 0 C0.66 0.33 1.32 0.66 2 1 C1.67 3.31 1.34 5.62 1 8 C0.01 7.01 -0.98 6.02 -2 5 C-2.99 5.495 -2.99 5.495 -4 6 C-2.84826645 3.53199953 -1.95216435 1.95216435 0 0 Z " fill="#707A95" transform="translate(167,361)"/>
<path d="M0 0 C0.66 0 1.32 0 2 0 C2 0.66 2 1.32 2 2 C2.928125 2.37125 2.928125 2.37125 3.875 2.75 C6.35068687 4.20628639 6.95125002 5.37812506 8 8 C2.33846154 5.66153846 2.33846154 5.66153846 0.625 2.3125 C0.41875 1.549375 0.2125 0.78625 0 0 Z " fill="#616786" transform="translate(182,361)"/>
<path d="M0 0 C-0.66 0.66 -1.32 1.32 -2 2 C-2.99 2 -3.98 2 -5 2 C-5 2.66 -5 3.32 -5 4 C-6.32 4 -7.64 4 -9 4 C-8.67 3.01 -8.34 2.02 -8 1 C-5.29120665 -0.35439668 -2.99066732 -0.06501451 0 0 Z " fill="#D4D8E7" transform="translate(36,361)"/>
<path d="M0 0 C2.9375 0.375 2.9375 0.375 6 1 C6.33 1.66 6.66 2.32 7 3 C4.69 3.33 2.38 3.66 0 4 C0 2.68 0 1.36 0 0 Z " fill="#E7EEF6" transform="translate(308,362)"/>
<path d="M0 0 C0.66 0 1.32 0 2 0 C1.75 1.875 1.75 1.875 1 4 C-1.0625 5.25 -1.0625 5.25 -3 6 C-3.33 4.68 -3.66 3.36 -4 2 C-2.68 2 -1.36 2 0 2 C0 1.34 0 0.68 0 0 Z " fill="#3B4365" transform="translate(220,362)"/>
<path d="M0 0 C0.99 0.495 0.99 0.495 2 1 C2 1.66 2 2.32 2 3 C2.66 3 3.32 3 4 3 C4.66 4.65 5.32 6.3 6 8 C5.01 7.67 4.02 7.34 3 7 C3 6.34 3 5.68 3 5 C2.01 5.33 1.02 5.66 0 6 C0 4.02 0 2.04 0 0 Z " fill="#575E7F" transform="translate(338,176)"/>
<path d="M0 0 C0.99 0 1.98 0 3 0 C3 0.66 3 1.32 3 2 C6.465 1.505 6.465 1.505 10 1 C10.33 1.66 10.66 2.32 11 3 C7.37 3 3.74 3 0 3 C0 2.01 0 1.02 0 0 Z " fill="#33385D" transform="translate(346,401)"/>
<path d="M0 0 C0.99 0 1.98 0 3 0 C3.66 1.98 4.32 3.96 5 6 C4.01 6.495 4.01 6.495 3 7 C3 5.68 3 4.36 3 3 C1.35 3 -0.3 3 -2 3 C-1.34 2.01 -0.68 1.02 0 0 Z " fill="#4E577C" transform="translate(213,364)"/>
<path d="M0 0 C0.94875 0.04125 1.8975 0.0825 2.875 0.125 C2.545 1.775 2.215 3.425 1.875 5.125 C1.276875 4.63 0.67875 4.135 0.0625 3.625 C-2.09529994 1.84223582 -2.09529994 1.84223582 -5.125 2.125 C-3.125 0.125 -3.125 0.125 0 0 Z " fill="#555C80" transform="translate(257.125,361.875)"/>
<path d="M0 0 C0.33 0.66 0.66 1.32 1 2 C1.66 2.33 2.32 2.66 3 3 C0.69 4.98 -1.62 6.96 -4 9 C-3.67 7.68 -3.34 6.36 -3 5 C-2.01 4.67 -1.02 4.34 0 4 C0 2.68 0 1.36 0 0 Z " fill="#404970" transform="translate(311,283)"/>
<path d="M0 0 C0 0.66 0 1.32 0 2 C0.99 2.33 1.98 2.66 3 3 C1.741875 3.04125 0.48375 3.0825 -0.8125 3.125 C-1.52019531 3.14820313 -2.22789062 3.17140625 -2.95703125 3.1953125 C-5 3 -5 3 -8 1 C-5.32916926 -0.33541537 -2.92701445 0 0 0 Z " fill="#373F65" transform="translate(138,216)"/>
<path d="M0 0 C-0.33 0.66 -0.66 1.32 -1 2 C-3.64860427 2.59355614 -6.29197322 2.74209269 -9 3 C-8 1 -8 1 -5.625 -0.1875 C-3 -1 -3 -1 0 0 Z " fill="#5F6579" transform="translate(177,402)"/>
<path d="M0 0 C0.33 0.66 0.66 1.32 1 2 C-0.98 4.97 -0.98 4.97 -3 8 C-3.75 6.25 -3.75 6.25 -4 4 C-2.0625 1.75 -2.0625 1.75 0 0 Z " fill="#4F5678" transform="translate(190,388)"/>
<path d="M0 0 C0.99 0.33 1.98 0.66 3 1 C3 1.66 3 2.32 3 3 C3.66 3 4.32 3 5 3 C5 3.66 5 4.32 5 5 C3.68 4.34 2.36 3.68 1 3 C0.01 3.66 -0.98 4.32 -2 5 C-2 2 -2 2 0 0 Z " fill="#2C3767" transform="translate(77,388)"/>
<path d="M0 0 C2.0625 0.4375 2.0625 0.4375 4 1 C3.67 2.32 3.34 3.64 3 5 C2.01 5 1.02 5 0 5 C-0.5625 3.0625 -0.5625 3.0625 -1 1 C-0.67 0.67 -0.34 0.34 0 0 Z " fill="#2E396E" transform="translate(72,384)"/>
<path d="M0 0 C0.33 0 0.66 0 1 0 C1.0825 0.94875 1.165 1.8975 1.25 2.875 C1.65074923 6.10461791 1.65074923 6.10461791 4.0625 7.375 C4.701875 7.58125 5.34125 7.7875 6 8 C4.02 8.33 2.04 8.66 0 9 C0 6.03 0 3.06 0 0 Z " fill="#C0C4D6" transform="translate(390,368)"/>
<path d="M0 0 C0.33 0 0.66 0 1 0 C1 2.31 1 4.62 1 7 C-0.32 7.33 -1.64 7.66 -3 8 C-1.125 1.125 -1.125 1.125 0 0 Z " fill="#E6EBF2" transform="translate(92,370)"/>
<path d="M0 0 C-0.66 1.65 -1.32 3.3 -2 5 C-4.97 4.505 -4.97 4.505 -8 4 C-5.60952106 1.60952106 -3.45854519 0 0 0 Z " fill="#D4D9E5" transform="translate(416,401)"/>
<path d="M0 0 C2 2 2 2 2 5 C0.02 5 -1.96 5 -4 5 C-3.34 4.67 -2.68 4.34 -2 4 C-0.86649466 1.98330173 -0.86649466 1.98330173 0 0 Z " fill="#595E85" transform="translate(366,381)"/>
<path d="M0 0 C1.32 0 2.64 0 4 0 C4 2.31 4 4.62 4 7 C1.49962266 4.82575883 0.56371414 3.26954202 0 0 Z " fill="#3A436C" transform="translate(22,362)"/>
<path d="M0 0 C0.66 0 1.32 0 2 0 C1.3125 1.9375 1.3125 1.9375 0 4 C-2.87939419 4.93580311 -4.25509788 5.37245106 -7 4 C-6.030625 3.525625 -5.06125 3.05125 -4.0625 2.5625 C-1.19522563 1.29806053 -1.19522563 1.29806053 0 0 Z " fill="#D2D8E5" transform="translate(289,304)"/>
<path d="M0 0 C0.66 0.33 1.32 0.66 2 1 C1.67 1.99 1.34 2.98 1 4 C-1.31 4.33 -3.62 4.66 -6 5 C-4.06745228 2.9754262 -2.36841312 1.57894208 0 0 Z " fill="#656B8A" transform="translate(319,246)"/>
</svg>
